<svg width="24" height="24" viewBox="0 0 24 24" fill="none" xmlns="http://www.w3.org/2000/svg">
<g clip-path="url(#clip0_1183_6187)">
<path fill-rule="evenodd" clip-rule="evenodd" d="M12 24C18.6274 24 24 18.6274 24 12C24 5.37258 18.6274 0 12 0C5.37258 0 0 5.37258 0 12C0 18.6274 5.37258 24 12 24Z" fill="white" style="fill:white;fill-opacity:1;"/>
<path fill-rule="evenodd" clip-rule="evenodd" d="M20.3086 17.7807L17.1875 15.6987L17.3956 15.3867L20.5167 17.4688L20.3086 17.7807Z" fill="white" style="fill:white;fill-opacity:1;"/>
<path fill-rule="evenodd" clip-rule="evenodd" d="M8.25 9.50824C8.91016 8.51605 9.94141 7.82855 11.1133 7.59418C12.2812 7.3598 13.4961 7.60199 14.4883 8.26215C15.4844 8.92621 16.1719 9.95355 16.4062 11.1254C16.6406 12.2934 16.3984 13.5082 15.7383 14.5043L8.25 9.50824Z" fill="#CD2E3A" style="fill:#CD2E3A;fill:color(display-p3 0.8039 0.1804 0.2275);fill-opacity:1;"/>
<path fill-rule="evenodd" clip-rule="evenodd" d="M8.24805 9.50781C7.58399 10.5039 7.3457 11.7188 7.58008 12.8867C7.81055 14.0586 8.50196 15.0859 9.49414 15.75C10.4863 16.4102 11.7012 16.6523 12.873 16.418C14.0449 16.1836 15.0723 15.4961 15.7363 14.5039C16.0645 14.0078 16.1855 13.3984 16.0684 12.8125C15.9512 12.2266 15.6074 11.7148 15.1113 11.3828C14.6152 11.0508 14.0059 10.9297 13.4238 11.0469C12.8379 11.1641 12.3223 11.5078 11.9902 12.0078L8.24805 9.50781Z" fill="#0047A0" style="fill:#0047A0;fill:color(display-p3 0.0000 0.2784 0.6275);fill-opacity:1;"/>
<path d="M11.9886 12.0082C12.6801 10.973 12.3988 9.57459 11.3676 8.88709C10.3324 8.19568 8.93396 8.47693 8.24646 9.50818C7.55505 10.5433 7.8363 11.9418 8.86755 12.6293C9.90271 13.3207 11.3011 13.0394 11.9886 12.0082Z" fill="#CD2E3A" style="fill:#CD2E3A;fill:color(display-p3 0.8039 0.1804 0.2275);fill-opacity:1;"/>
<path fill-rule="evenodd" clip-rule="evenodd" d="M2.625 8.46875L5.12109 4.72266L5.74609 5.14063L3.25 8.88281L2.625 8.46875ZM3.5625 9.09375L6.05859 5.34766L6.68359 5.76563L4.18359 9.50781L3.5625 9.09375ZM4.49609 9.71484L6.99609 5.97266L7.61719 6.39063L5.12109 10.1328L4.49609 9.71484ZM16.3516 17.6211L18.8477 13.8789L19.4727 14.2969L16.9766 18.0391L16.3516 17.6211ZM17.2891 18.2461L19.7852 14.5039L20.4102 14.918L17.9141 18.6641L17.2891 18.2461ZM18.2266 18.8711L20.7227 15.1289L21.3438 15.543L18.8477 19.2891L18.2266 18.8711ZM2.63672 15.5469L5.13281 19.2891L5.75781 18.8711L3.26172 15.1289L2.63672 15.5469ZM4.92507 16.9498L6.07031 18.6641L6.69141 18.25L5.54823 16.5343L4.92507 16.9498ZM4.71676 16.638L5.34029 16.2223L4.19531 14.5039L3.57031 14.9219L4.71676 16.638ZM4.50781 14.2969L7.00391 18.0391L7.62891 17.625L5.13281 13.8789L4.50781 14.2969ZM17.5073 8.10573L16.3633 6.39063L16.9883 5.97266L18.1321 7.68922L17.5073 8.10573ZM17.7154 8.4177L18.8594 10.1328L19.4844 9.71875L18.34 8.00129L17.7154 8.4177ZM19.7969 9.51172L17.3008 5.76563L17.9219 5.35156L20.418 9.09375L19.7969 9.51172ZM19.3786 6.85779L18.2344 5.14063L18.8594 4.72656L20.0024 6.44017L19.3786 6.85779ZM19.5865 7.16986L20.7305 8.88672L21.3555 8.46875L20.2105 6.75214L19.5865 7.16986Z" fill="black" style="fill:black;fill-opacity:1;"/>
<path fill-rule="evenodd" clip-rule="evenodd" d="M12 23.3C18.2408 23.3 23.3 18.2408 23.3 12C23.3 5.75918 18.2408 0.7 12 0.7C5.75918 0.7 0.7 5.75918 0.7 12C0.7 18.2408 5.75918 23.3 12 23.3ZM12 24C18.6274 24 24 18.6274 24 12C24 5.37258 18.6274 0 12 0C5.37258 0 0 5.37258 0 12C0 18.6274 5.37258 24 12 24Z" fill="#D9D9D9" style="fill:#D9D9D9;fill:color(display-p3 0.8510 0.8510 0.8510);fill-opacity:1;"/>
</g>
<defs>
<clipPath id="clip0_1183_6187">
<rect width="24" height="24" fill="white" style="fill:white;fill-opacity:1;"/>
</clipPath>
</defs>
</svg>
