<svg width="24" height="24" viewBox="0 0 24 24" fill="none" xmlns="http://www.w3.org/2000/svg">
<g clip-path="url(#clip0_1183_6181)">
<path fill-rule="evenodd" clip-rule="evenodd" d="M12 24C18.6274 24 24 18.6274 24 12C24 5.37258 18.6274 0 12 0C5.37258 0 0 5.37258 0 12C0 18.6274 5.37258 24 12 24Z" fill="#012169" style="fill:#012169;fill:color(display-p3 0.0039 0.1294 0.4118);fill-opacity:1;"/>
<path fill-rule="evenodd" clip-rule="evenodd" d="M22.6023 6.36951L15.0026 12.0376L22.5857 17.6618C22.0097 18.7362 21.2749 19.7128 20.4126 20.5601L12.0026 14.2876L3.6078 20.5749C2.74529 19.7304 2.00967 18.7568 1.43219 17.6854L8.96509 12.0751L1.375 6.42224C1.94008 5.34781 2.66332 4.36954 3.51376 3.51839L11.9651 9.78762L20.4445 3.47168C21.3013 4.31982 22.0309 5.29614 22.6023 6.36951Z" fill="white" style="fill:white;fill-opacity:1;"/>
<path fill-rule="evenodd" clip-rule="evenodd" d="M20.879 3.92871C21.1546 4.23177 21.4149 4.549 21.6587 4.87917L14.6612 10.1624L14.7362 8.51237L20.879 3.92871ZM1.69531 5.84493C1.91609 5.47614 2.15611 5.12018 2.41398 4.77846L8.96124 9.59987H6.71124L1.69531 5.84493ZM21.5811 19.2245C21.8243 18.9024 22.0517 18.5677 22.262 18.2214L15.8987 13.5374H13.8362L21.5811 19.2245ZM3.17703 20.1349L9.22374 15.5999L8.99874 14.2874L2.40299 19.2067C2.64552 19.5291 2.90392 19.8389 3.17703 20.1349Z" fill="#C8102E" style="fill:#C8102E;fill:color(display-p3 0.7843 0.0627 0.1804);fill-opacity:1;"/>
<path fill-rule="evenodd" clip-rule="evenodd" d="M23.6219 15C23.8687 14.0411 24 13.0359 24 12C24 10.9641 23.8687 9.95886 23.6219 9H15.0375V0.387769C14.0674 0.134706 13.0494 0 12 0C10.9776 0 9.98506 0.127861 9.0375 0.368465V9H0.378052C0.131259 9.95886 0 10.9641 0 12C0 13.0359 0.131259 14.0411 0.378052 15H9.0375V23.6315C9.98506 23.8721 10.9776 24 12 24C13.0494 24 14.0674 23.8653 15.0375 23.6122V15H23.6219Z" fill="white" style="fill:white;fill-opacity:1;"/>
<path fill-rule="evenodd" clip-rule="evenodd" d="M23.8602 13.8375C23.9522 13.2385 24 12.6248 24 12C24 11.4012 23.9561 10.8127 23.8715 10.2375H13.9307L13.9989 0.165729C13.3488 0.0567323 12.681 0 12 0C11.4573 0 10.9229 0.0360314 10.3993 0.105833L10.3307 10.2375H0.12852C0.0438522 10.8127 0 11.4012 0 12C0 12.6248 0.0477508 13.2385 0.139802 13.8375H10.3063L10.2384 23.8716C10.8133 23.9562 11.4015 24 12 24C12.6251 24 13.2391 23.9522 13.8384 23.8601L13.9063 13.8375H23.8602Z" fill="#C8102E" style="fill:#C8102E;fill:color(display-p3 0.7843 0.0627 0.1804);fill-opacity:1;"/>
<path fill-rule="evenodd" clip-rule="evenodd" d="M12 23.3C18.2408 23.3 23.3 18.2408 23.3 12C23.3 5.75918 18.2408 0.7 12 0.7C5.75918 0.7 0.7 5.75918 0.7 12C0.7 18.2408 5.75918 23.3 12 23.3ZM12 24C18.6274 24 24 18.6274 24 12C24 5.37258 18.6274 0 12 0C5.37258 0 0 5.37258 0 12C0 18.6274 5.37258 24 12 24Z" fill="#D9D9D9" style="fill:#D9D9D9;fill:color(display-p3 0.8510 0.8510 0.8510);fill-opacity:1;"/>
</g>
<defs>
<clipPath id="clip0_1183_6181">
<rect width="24" height="24" fill="white" style="fill:white;fill-opacity:1;"/>
</clipPath>
</defs>
</svg>
