<svg width="24" height="24" viewBox="0 0 24 24" fill="none" xmlns="http://www.w3.org/2000/svg">
<path d="M6.36816 20.2679C5.07617 20.0394 4.39062 19.2484 4.39062 17.9827V5.57259C4.39062 4.37728 5.05859 3.57747 6.0957 3.44564L15.0957 1.85482C17.416 1.45052 18.8223 2.47005 18.8223 4.52669V6.08236C19.3496 6.57454 19.6045 7.28646 19.6045 8.30599V19.1077C19.6045 21.2523 18.3652 22.3861 16.3877 22.0433L6.36816 20.2679ZM16.6338 5.18587C16.748 5.20345 16.8535 5.22103 16.959 5.2474V4.4388C16.959 3.76204 16.4668 3.44564 15.6758 3.57747L11.5186 4.2806L16.6338 5.18587ZM7.00098 18.3255L16.3613 19.9779C17.1172 20.1185 17.583 19.7142 17.583 18.9232V8.28841C17.583 7.62044 17.1963 7.31283 16.4668 7.18099L7.16797 5.53744C6.70215 5.45833 6.41211 5.68685 6.41211 6.1263V17.6048C6.41211 18.0003 6.59668 18.2552 7.00098 18.3255ZM8.52148 9.44857C8.17871 9.39583 7.97656 9.13216 7.97656 8.77181C7.97656 8.34115 8.31934 8.05111 8.79395 8.13021L15.1396 9.24642C15.5088 9.31673 15.7021 9.53646 15.7021 9.92318C15.7021 10.3626 15.3857 10.6702 14.9111 10.5824L8.52148 9.44857ZM8.52148 12.8236C8.17871 12.7708 7.97656 12.5072 7.97656 12.1468C7.97656 11.7161 8.31934 11.4261 8.79395 11.5052L15.1396 12.6214C15.5088 12.6917 15.7021 12.9115 15.7021 13.2982C15.7021 13.7376 15.3857 14.0452 14.9111 13.9574L8.52148 12.8236Z" fill="#171717" style="fill:#171717;fill:color(display-p3 0.0902 0.0902 0.0902);fill-opacity:1;"/>
</svg>
