<svg width="24" height="24" viewBox="0 0 24 24" fill="none" xmlns="http://www.w3.org/2000/svg">
<path d="M7.61279 21.8665C7.01294 21.8665 6.66064 21.4475 6.66064 20.7905V18.0579H5.94653C3.24243 18.0579 1.5 16.3726 1.5 13.5161V6.06079C1.5 3.20435 3.17578 1.5 6.05127 1.5H18.5339C21.4189 1.5 23.0947 3.20435 23.0947 6.06079V13.5161C23.0947 16.363 21.4189 18.0579 18.5339 18.0579H12.364L8.84106 21.2285C8.34595 21.676 8.03174 21.8665 7.61279 21.8665ZM10.0027 12.0403C11.6023 13.6399 13.5256 14.8682 15.0776 14.8682C15.8013 14.8682 16.4202 14.5825 16.8391 14.116C17.2485 13.6685 17.3914 13.3257 17.3914 13.0305C17.3914 12.802 17.2581 12.5925 16.8867 12.3354L15.5632 11.3833C15.23 11.1357 15.0872 11.1072 14.8777 11.1072C14.7158 11.1072 14.573 11.1262 14.2874 11.2881L13.4209 11.7642C13.3257 11.8213 13.2686 11.8403 13.1924 11.8403C13.0876 11.8403 13.0305 11.8118 12.9258 11.7642C12.5068 11.5737 11.926 11.1167 11.4023 10.6025C10.8977 10.0884 10.4978 9.5647 10.2883 9.14575C10.2598 9.08862 10.2217 9.00293 10.2217 8.90771C10.2217 8.85059 10.2598 8.77441 10.3074 8.70776L10.8025 7.83179C10.9453 7.59375 10.9929 7.46997 10.9929 7.27954C10.9929 7.06055 10.9263 6.84155 10.7073 6.54639L9.79321 5.27051C9.53613 4.90869 9.31714 4.6897 9.02197 4.6897C8.66016 4.6897 8.22217 4.97534 7.90796 5.28003C7.45093 5.7085 7.21289 6.31787 7.21289 7.00342C7.21289 8.55542 8.40308 10.4407 10.0027 12.0403Z" fill="#171717" style="fill:#171717;fill:color(display-p3 0.0902 0.0902 0.0902);fill-opacity:1;"/>
</svg>
