<svg width="24" height="24" viewBox="0 0 24 24" fill="none" xmlns="http://www.w3.org/2000/svg">
<path d="M1.97656 13.1494C1.97656 7.07471 6.19458 2.98047 12.2407 2.98047C17.9822 2.98047 22.0193 6.61768 22.0193 12.1116C22.0193 15.825 20.2578 18.3101 17.3633 18.3101C15.8208 18.3101 14.6877 17.5769 14.3926 16.3296H14.2307C13.707 17.6055 12.6882 18.3291 11.26 18.3291C8.73682 18.3291 7.04199 16.2344 7.04199 13.178C7.04199 10.1882 8.69873 8.16016 11.1172 8.16016C12.4883 8.16016 13.5928 8.82666 14.0688 9.96924H14.2402V9.36938C14.2402 8.59814 14.6687 8.16016 15.4019 8.16016C16.1445 8.16016 16.5635 8.59814 16.5635 9.36938V14.8633C16.5635 15.825 17.0396 16.3867 17.8774 16.3867C19.1438 16.3867 19.9341 14.7585 19.9341 12.3401C19.9341 7.66504 16.6301 4.90381 12.2217 4.90381C7.40381 4.90381 4.13794 8.28394 4.13794 13.2065C4.13794 18.2529 7.53711 21.3379 12.7073 21.3379C13.707 21.3379 14.4211 21.2141 15.2114 21.0522C15.4209 21.0142 15.5923 20.9951 15.7637 20.9951C16.3635 20.9951 16.6873 21.3474 16.6873 21.8425C16.6873 22.3091 16.4587 22.6328 15.8589 22.8518C15.1162 23.1089 13.926 23.2708 12.3835 23.2708C6.26123 23.2708 1.97656 19.3574 1.97656 13.1494ZM11.8408 16.2344C13.2119 16.2344 14.0784 15.0728 14.0784 13.2065C14.0784 11.3689 13.2214 10.2263 11.8503 10.2263C10.4888 10.2263 9.64136 11.3784 9.64136 13.2351C9.64136 15.0918 10.4792 16.2344 11.8408 16.2344Z" fill="#171717" style="fill:#171717;fill:color(display-p3 0.0902 0.0902 0.0902);fill-opacity:1;"/>
</svg>
