<svg width="24" height="24" viewBox="0 0 24 24" fill="none" xmlns="http://www.w3.org/2000/svg">
<path d="M12.0029 1.20117C17.9428 1.20128 22.8027 6.06104 22.8027 12.001C22.8026 17.3467 18.9149 21.7742 13.7852 22.6924L13.7383 22.6543C13.7717 22.6486 13.8055 22.6447 13.8389 22.6387V15.0244H16.2148L16.7012 12.001H13.8389V9.89453C13.8389 9.03053 14.163 8.38281 15.459 8.38281H16.8633V5.62891C16.1073 5.52091 15.2423 5.41211 14.4863 5.41211C12.0027 5.4123 10.2746 6.92449 10.2744 9.62402V12.001H7.5752V15.0244H10.2744V22.6387C10.2775 22.6392 10.2811 22.6391 10.2842 22.6396L10.2207 22.6924C5.09081 21.7744 1.20322 17.3469 1.20312 12.001C1.20312 6.06098 6.06293 1.20117 12.0029 1.20117Z" fill="url(#paint0_linear_1853_26486)"/>
<defs>
<linearGradient id="paint0_linear_1853_26486" x1="12.0035" y1="22.0492" x2="12.0035" y2="1.19719" gradientUnits="userSpaceOnUse">
<stop stop-color="#0062E0" style="stop-color:#0062E0;stop-color:color(display-p3 0.0000 0.3843 0.8784);stop-opacity:1;"/>
<stop offset="1" stop-color="#19AFFF" style="stop-color:#19AFFF;stop-color:color(display-p3 0.0980 0.6863 1.0000);stop-opacity:1;"/>
</linearGradient>
</defs>
</svg>
