<svg width="24" height="24" viewBox="0 0 24 24" fill="none" xmlns="http://www.w3.org/2000/svg">
<path d="M2.88818 8.93848C2.16016 8.93848 1.75 8.52832 1.75 7.77979V5.30859C1.75 3.05273 2.95996 1.86328 5.22607 1.86328H7.69727C8.4458 1.86328 8.85596 2.26318 8.85596 3.00146C8.85596 3.73975 8.4458 4.1499 7.69727 4.1499H5.4209C4.51855 4.1499 4.03662 4.60107 4.03662 5.54443V7.77979C4.03662 8.52832 3.63672 8.93848 2.88818 8.93848ZM21.1094 8.93848C20.3711 8.93848 19.9609 8.52832 19.9609 7.77979V5.54443C19.9609 4.60107 19.4688 4.1499 18.5767 4.1499H16.3003C15.5518 4.1499 15.1416 3.73975 15.1416 3.00146C15.1416 2.26318 15.5518 1.86328 16.3003 1.86328H18.7715C21.0479 1.86328 22.2476 3.06299 22.2476 5.30859V7.77979C22.2476 8.52832 21.8477 8.93848 21.1094 8.93848ZM11.1836 13.8296C10.6401 13.8296 10.3018 13.5425 10.3018 13.0605C10.3018 12.6504 10.6196 12.3428 11.0298 12.3428H11.3169C11.4092 12.3428 11.4604 12.2915 11.4604 12.1992V8.96924C11.4604 8.52832 11.7578 8.23096 12.1987 8.23096C12.6396 8.23096 12.937 8.52832 12.937 8.96924V12.1685C12.937 13.2349 12.3423 13.8296 11.2759 13.8296H11.1836ZM8.18945 11.4302C7.68701 11.4302 7.31787 11.0713 7.31787 10.5586V9.12305C7.31787 8.62061 7.68701 8.24121 8.18945 8.24121C8.69189 8.24121 9.06104 8.61035 9.06104 9.12305V10.5586C9.06104 11.0713 8.69189 11.4302 8.18945 11.4302ZM15.7876 11.4302C15.2749 11.4302 14.9058 11.0713 14.9058 10.5586V9.12305C14.9058 8.61035 15.2749 8.24121 15.7876 8.24121C16.2798 8.24121 16.6489 8.62061 16.6489 9.12305V10.5586C16.6489 11.0713 16.2798 11.4302 15.7876 11.4302ZM11.9424 17.1621C10.6504 17.1621 9.34814 16.6494 8.53809 15.7163C8.39453 15.542 8.32275 15.3779 8.32275 15.1831C8.32275 14.7627 8.65088 14.4448 9.07129 14.4448C9.32764 14.4448 9.48145 14.5679 9.66602 14.7422C10.2402 15.3267 11.1016 15.6958 11.9424 15.6958C12.8242 15.6958 13.6958 15.3062 14.229 14.7524C14.4443 14.5269 14.5981 14.4448 14.8135 14.4448C15.2339 14.4448 15.5518 14.7627 15.5518 15.1831C15.5518 15.4087 15.4902 15.5933 15.3569 15.7266C14.4546 16.6289 13.1831 17.1621 11.9424 17.1621ZM5.22607 22.3608C2.95996 22.3608 1.75 21.1611 1.75 18.9155V16.4341C1.75 15.6958 2.1499 15.2856 2.88818 15.2856C3.62646 15.2856 4.03662 15.6958 4.03662 16.4341V18.6797C4.03662 19.623 4.51855 20.0742 5.4209 20.0742H7.69727C8.4458 20.0742 8.85596 20.4844 8.85596 21.2124C8.85596 21.9507 8.4458 22.3608 7.69727 22.3608H5.22607ZM16.3003 22.3608C15.5518 22.3608 15.1416 21.9507 15.1416 21.2124C15.1416 20.4844 15.5518 20.0742 16.3003 20.0742H18.5767C19.4688 20.0742 19.9609 19.623 19.9609 18.6797V16.4341C19.9609 15.6958 20.3608 15.2856 21.1094 15.2856C21.8374 15.2856 22.2476 15.6958 22.2476 16.4341V18.9155C22.2476 21.1611 21.0479 22.3608 18.7715 22.3608H16.3003Z" fill="#171717" style="fill:#171717;fill:color(display-p3 0.0902 0.0902 0.0902);fill-opacity:1;"/>
</svg>
