<svg width="24" height="24" viewBox="0 0 24 24" fill="none" xmlns="http://www.w3.org/2000/svg">
<path d="M7.54443 23.3462C6.70654 23.3462 6.2019 22.7749 6.2019 21.8513V19.5947H5.64966C2.94556 19.5947 1.20312 17.8999 1.20312 15.0435V7.58813C1.20312 4.73169 2.87891 3.02734 5.75439 3.02734H18.2371C21.1221 3.02734 22.7979 4.73169 22.7979 7.58813V15.0435C22.7979 17.8904 21.1221 19.5947 18.2371 19.5947H12.5337L9.28687 22.4512C8.57275 23.0796 8.12524 23.3462 7.54443 23.3462ZM8.05859 20.9849L11.0579 18.0237C11.4958 17.5857 11.7815 17.4714 12.3909 17.4714H18.1418C19.8462 17.4714 20.6746 16.6145 20.6746 14.9482V7.68335C20.6746 6.00757 19.8462 5.15063 18.1418 5.15063H5.84961C4.14526 5.15063 3.32642 6.00757 3.32642 7.68335V14.9482C3.32642 16.6145 4.14526 17.4714 5.84961 17.4714H7.23975C7.79199 17.4714 8.05859 17.7 8.05859 18.2998V20.9849ZM12.0005 12.8059C11.4292 12.8059 11.0959 12.4822 11.0769 11.9014L10.9341 7.56909C10.915 6.95972 11.353 6.54077 11.991 6.54077C12.6289 6.54077 13.0859 6.96924 13.0574 7.57861L12.9146 11.9014C12.886 12.4917 12.5623 12.8059 12.0005 12.8059ZM12.0005 16.0051C11.353 16.0051 10.8198 15.5481 10.8198 14.9197C10.8198 14.2817 11.3435 13.8342 12.0005 13.8342C12.667 13.8342 13.1812 14.2817 13.1812 14.9197C13.1812 15.5576 12.6575 16.0051 12.0005 16.0051Z" fill="#171717" style="fill:#171717;fill:color(display-p3 0.0902 0.0902 0.0902);fill-opacity:1;"/>
</svg>
