<svg width="24" height="24" viewBox="0 0 24 24" fill="none" xmlns="http://www.w3.org/2000/svg">
<path d="M12.6941 17.0469C11.468 17.0469 10.5452 16.5986 10.0442 15.8208H9.99805L7.79639 17.7324C7.16357 18.2795 6.73511 18.4839 6.22095 18.4839C5.47607 18.4839 5.00806 17.9829 5.00806 17.1523V15.8208H4.88281C3.13599 15.8208 1.71875 14.5156 1.71875 12.4722V7.15918C1.71875 5.11572 3.01733 3.81055 5.06079 3.81055H13.2083C15.1924 3.81055 16.4778 5.0498 16.5437 6.98779H19.2068C21.0986 6.98779 22.2852 8.13477 22.2852 9.96729V14.2454C22.2852 15.9658 21.1777 17.0469 19.3914 17.0469H19.3123V18.3455C19.3123 19.1431 18.8376 19.677 18.0994 19.677C17.6445 19.677 17.0645 19.387 16.5305 18.9255L14.342 17.0469H12.6941ZM6.70874 14.4563V16.2361L8.74561 14.2454C9.05542 13.9421 9.25977 13.8169 9.61572 13.7905V9.96729C9.61572 8.13477 10.7957 6.98779 12.6941 6.98779H14.4871C14.3882 6.22974 13.907 5.854 13.05 5.854H5.21899C4.25 5.854 3.75562 6.33521 3.75562 7.31079V12.3206C3.75562 13.2961 4.25 13.7773 5.21899 13.7773H6.03638C6.45166 13.7773 6.70874 13.9619 6.70874 14.4563ZM13.05 15.1287H14.3684C14.7903 15.1287 15.2781 15.3396 15.6472 15.7021L17.6116 17.5479V15.8735C17.6116 15.4055 17.9148 15.1287 18.3499 15.1287H18.8442C19.7737 15.1287 20.301 14.5881 20.301 13.6917V10.3496C20.301 9.44653 19.7737 8.9126 18.8442 8.9126H13.05C12.1206 8.9126 11.5933 9.44653 11.5933 10.3496V13.6917C11.5933 14.5881 12.1206 15.1287 13.05 15.1287Z" fill="#171717" style="fill:#171717;fill:color(display-p3 0.0902 0.0902 0.0902);fill-opacity:1;"/>
</svg>
