<svg width="24" height="24" viewBox="0 0 24 24" fill="none" xmlns="http://www.w3.org/2000/svg">
<path d="M1.63749 10.0552C1.17094 9.89331 0.970986 9.33154 1.18998 8.76977C2.9705 4.19946 6.86478 1.4668 11.854 1.4668C13.7203 1.4668 15.1866 1.74292 16.7481 2.64746C17.2242 2.93311 17.3575 3.34253 17.1766 3.72339C16.9576 4.20898 16.472 4.20898 15.9102 3.9519C14.7295 3.4187 13.5108 3.10449 11.854 3.10449C7.7122 3.10449 4.2559 5.59912 2.77055 9.52197C2.58964 9.979 2.15165 10.2456 1.63749 10.0552ZM3.03715 19.0911C2.78959 18.7483 2.86576 18.3103 3.19901 17.958C3.57035 17.5771 3.82743 17.0344 3.82743 16.3774C3.81791 15.3967 3.18949 14.2922 3.18949 12.645C3.18949 7.88428 7.0933 3.98999 11.854 3.98999C17.3479 3.98999 21.0232 8.40796 21.0232 15.0254C21.0232 17.5962 20.5376 19.3481 20.1758 20.2908C20.014 20.7478 19.4617 20.9478 19.0428 20.7288C18.6429 20.5383 18.4905 20.0527 18.6714 19.6433C18.9952 18.8721 19.3855 17.3582 19.3855 15.0349C19.3855 9.36963 16.3767 5.61816 11.854 5.61816C7.98832 5.61816 4.82719 8.7793 4.82719 12.645C4.82719 14.2446 5.42704 14.9778 5.42704 16.387C5.42704 17.5581 5.0081 18.5959 4.2559 19.2244C3.87504 19.5481 3.32279 19.4814 3.03715 19.0911ZM22.5752 13.9875C22.1372 13.9875 21.8135 13.6543 21.7564 13.1687C21.4612 9.89331 20.3186 7.6272 18.2525 5.55151C17.8907 5.19922 17.824 4.72314 18.1382 4.38989C18.4239 4.0376 18.9571 3.98047 19.3094 4.32324C21.6231 6.55127 22.9847 8.95068 23.337 13.1116C23.375 13.5972 23.0513 13.9875 22.5752 13.9875ZM7.8931 14.9778C8.04545 15.4539 7.87406 15.9204 7.4456 16.0823C6.96 16.2727 6.46488 16.0823 6.28397 15.5967C6.01737 14.854 5.71269 13.7495 5.71269 12.645C5.71269 9.28393 8.48344 6.50366 11.854 6.50366C12.9395 6.50366 13.7583 6.69409 14.4534 7.10352C14.92 7.3606 15.0342 7.85571 14.8152 8.26514C14.6438 8.61743 14.2344 8.74121 13.8059 8.55078C13.0538 8.22705 12.7776 8.14136 11.854 8.14136C9.37846 8.14136 7.3599 10.1694 7.3599 12.645C7.3599 13.6067 7.63602 14.3208 7.8931 14.9778ZM15.615 10.1028C15.3389 9.65527 15.4056 9.08398 15.8626 8.85547C16.2625 8.646 16.7767 8.79834 17.0242 9.23633C17.8145 10.6741 18.5096 12.188 18.5096 15.4824C18.5096 18.2437 17.7098 20.9858 16.4148 22.7187C16.1292 23.0996 15.5579 23.1472 15.1961 22.814C14.8914 22.5283 14.8724 22.0427 15.158 21.6809C16.2244 20.3955 16.8909 18.0151 16.8909 15.5205C16.8909 13.1877 16.4434 11.4739 15.615 10.1028ZM7.87406 22.3474C7.50272 22.6616 6.96952 22.6235 6.67435 22.2046C6.4268 21.8237 6.50297 21.3762 6.86478 21.0715C8.16923 20.0146 8.89286 18.3103 8.88334 16.3679C8.8643 15.0063 8.26444 13.6067 8.26444 12.3975C8.26444 10.436 9.76884 9.03638 11.854 9.03638C14.5201 9.03638 15.8531 11.2739 15.8721 15.3396C15.8816 18.6245 14.6629 22.0142 12.93 23.5757C12.5682 23.928 11.9969 23.8518 11.7112 23.4519C11.4827 23.0901 11.5589 22.6331 11.9016 22.3474C13.4537 21.0144 14.4344 18.3008 14.3296 15.4443C14.2344 12.3213 13.4441 10.6646 11.854 10.6646C10.6639 10.6646 9.87357 11.3977 9.87357 12.5308C9.87357 13.4353 10.5115 14.5303 10.521 16.3679C10.5306 18.7864 9.56889 20.9858 7.87406 22.3474ZM2.15165 16.2632C1.70414 16.406 1.23759 16.1584 1.10429 15.6824C0.713906 14.2922 0.599648 13.2068 0.666298 12.0356C0.704384 11.4834 1.12333 11.1692 1.60893 11.2358C2.02787 11.3025 2.31352 11.6548 2.31352 12.0928C2.29447 13.4163 2.41825 14.197 2.67533 15.2349C2.77055 15.7014 2.56107 16.1299 2.15165 16.2632ZM13.0633 17.3867C12.9871 17.8723 12.5586 18.1675 12.0921 18.0913C11.616 18.0151 11.3875 17.5962 11.4541 17.1392C11.6446 15.8538 11.5779 14.635 11.159 13.1687C11.0257 12.7117 11.2542 12.2832 11.6922 12.1594C12.1397 12.0166 12.5682 12.2546 12.7205 12.7498C13.2061 14.3113 13.2918 15.9299 13.0633 17.3867ZM5.73173 21.0239C5.26518 21.2715 4.77006 21.1287 4.57963 20.7002C4.41776 20.3003 4.57963 19.9004 4.98905 19.5957C5.63651 19.1291 6.03642 18.5959 6.30302 17.8723C6.4744 17.4153 6.90287 17.1677 7.32182 17.3105C7.73124 17.4534 7.96928 17.9199 7.82645 18.3579C7.51225 19.3291 6.58866 20.5955 5.73173 21.0239ZM10.2735 23.1567C9.86405 23.4424 9.31181 23.3472 9.07377 22.9758C8.83573 22.6045 8.92143 22.1284 9.27372 21.8333C9.95927 21.2524 10.4068 20.5955 10.7686 19.7766C10.9781 19.3005 11.3684 19.0435 11.8636 19.2244C12.2825 19.3577 12.4825 19.8433 12.292 20.3289C11.816 21.5 11.0638 22.5664 10.2735 23.1567Z" fill="#171717" style="fill:#171717;fill:color(display-p3 0.0902 0.0902 0.0902);fill-opacity:1;"/>
</svg>
