<svg width="64" height="64" viewBox="0 0 64 64" fill="none" xmlns="http://www.w3.org/2000/svg">
<path d="M32 45C31.6479 45 31.1198 44.8919 30.5477 44.589C18.2469 37.7757 14 34.9205 14 27.1554V10.8466C14 8.61871 14.9902 7.8833 16.8166 7.14789C19.3912 6.13129 27.621 3.12475 30.1956 2.30282C30.7677 2.12978 31.3839 2 32 2C32.6161 2 33.2323 2.10815 33.8264 2.30282C36.379 3.16801 44.6088 6.10966 47.1834 7.14789C49.0318 7.90493 50 8.61871 50 10.8466V27.1554C50 34.9205 45.9731 38.1434 33.4523 44.589C32.9022 44.8702 32.3521 45 32 45ZM23.8362 31.5246C23.8362 33.1901 24.5844 33.9688 26.1467 33.9688H37.8973C39.4597 33.9688 40.2078 33.1901 40.2078 31.5246V22.6564C40.2078 21.0775 39.5477 20.2988 38.2274 20.2123V17.5951C38.2274 13.4854 35.7188 10.7168 32.022 10.7168C28.3252 10.7168 25.8166 13.4854 25.8166 17.5951V20.2123C24.4963 20.2988 23.8362 21.0775 23.8362 22.6564V31.5246ZM28.1932 20.1906V17.3355C28.1932 14.7183 29.7335 12.9879 32.022 12.9879C34.3105 12.9879 35.8509 14.7183 35.8509 17.3355V20.1906H28.1932Z" fill="#111827" style="fill:#111827;fill:color(display-p3 0.0667 0.0941 0.1529);fill-opacity:1;"/>
</svg>
