<svg width="307" height="45" viewBox="0 0 307 45" fill="none" xmlns="http://www.w3.org/2000/svg">
<path d="M17.9401 4.34802C20.7114 2.9187 23.852 1.24946 26.673 0.00279261C25.8298 2.00896 23.6275 5.92126 22.555 7.97077C21.0047 10.8612 19.52 13.7545 17.9432 16.6396C17.1362 15.3765 15.6932 12.4301 14.945 11.0075L9.1875 0C11.1351 0.752351 15.8275 3.27898 17.9401 4.34802Z" fill="#FFB71B" style="fill:#FFB71B;fill:color(display-p3 1.0000 0.7176 0.1059);fill-opacity:1;"/>
<path d="M0 1.32462C2.11825 2.09812 4.46366 3.17647 6.56251 4.05815C7.65557 4.51732 10.0022 5.46336 10.9485 5.99137C12.8882 9.66824 15.0722 13.6339 16.905 17.3388C14.3784 17.7105 12.1933 18.8912 10.653 20.9559C9.22354 22.8862 8.61957 25.3055 8.97402 27.6814C9.34179 30.101 10.6604 32.2735 12.637 33.7164C14.5115 35.1261 16.8735 35.7239 19.1928 35.3756C24.2377 34.6136 27.6658 29.9246 26.8806 24.8597C26.4992 22.5276 25.2119 20.4409 23.299 19.0543C22.0168 18.1177 20.5697 17.5853 19.0295 17.2578C20.8969 13.4944 22.9911 9.66017 24.9643 5.9357C28.585 4.35091 32.2193 2.79741 35.8667 1.27539C35.8718 4.15897 35.8214 7.22859 35.8885 10.0959C33.8273 11.0027 31.754 11.8817 29.6691 12.7326C38.8814 21.0294 37.7617 35.1454 27.3379 41.6958C24.45 43.5106 22.1453 43.8494 18.8953 44.3951H17.0376C16.6145 44.2791 15.1992 44.1166 14.6204 44.0037C12.1309 43.5405 9.76625 42.5603 7.67895 41.1266C2.79553 37.7572 1.02035 33.59 0 28.0122V24.7468C0.156339 24.1751 0.266432 22.9646 0.479775 22.1582C1.59025 17.9614 3.12627 15.6059 6.22796 12.6995C4.33147 11.9818 1.82387 10.9151 0 10.0509V1.32462Z" fill="#FFB71B" style="fill:#FFB71B;fill:color(display-p3 1.0000 0.7176 0.1059);fill-opacity:1;"/>
<path d="M61.5856 7.46882L70.6589 7.46159L70.6465 19.7849C69.5786 21.2036 68.9363 21.2505 67.2286 21.5776C67.2058 17.5626 67.204 13.5477 67.2229 9.53284C65.6557 9.51171 63.4145 9.3926 61.8639 9.63498C61.4724 9.69617 61.4422 9.90047 61.2734 10.222C62.1581 10.4288 62.8669 10.5525 63.6588 11.021C67.6164 14.0333 65.831 18.9022 62.5264 21.6128C61.6811 21.2214 60.4045 20.3692 59.5741 19.8442L58.4112 21.6268C57.0167 21.4175 55.5981 21.2754 55.1716 19.2914C54.6614 16.9175 55.8721 12.1062 54.8446 9.89629C54.5848 9.33762 51.8696 9.52416 51.0398 9.53848L52.2196 10.7381C52.2744 13.037 52.0303 17.4575 52.2637 19.4999L52.4945 19.6226L52.9145 19.4343C53.2439 19.0327 53.3442 18.1799 53.4467 17.6389C53.2122 17.0405 52.8232 16.3512 52.614 15.7725C52.4537 15.3185 52.4804 14.8195 52.6883 14.3854C54.0478 13.3237 55.1142 15.6504 54.9383 16.9571C54.5138 20.1068 51.6426 23.4663 48.8598 20.1162C48.7399 17.5479 48.9673 13.7335 48.7927 11.0303C48.7781 10.8037 48.2397 10.6012 47.9219 10.2452C48.2496 9.59678 49.4281 8.12386 49.9285 7.46978C51.9177 7.45388 56.4507 6.98561 58.1206 8.20278C58.3645 8.38058 58.697 9.1519 58.6925 9.49469C58.6498 12.7756 58.6325 16.0596 58.6288 19.3446C59.2701 18.6303 59.8908 18.0063 60.5684 17.3301C61.2396 17.7863 61.9833 18.8006 62.5055 19.0181C63.2178 18.6882 63.4433 17.3868 63.2378 16.6726C62.6549 14.6462 60.8766 13.6404 59.1969 12.6273C59.7421 11.1693 60.7649 8.7724 61.5856 7.46882Z" fill="#3566B5" style="fill:#3566B5;fill:color(display-p3 0.2078 0.4000 0.7098);fill-opacity:1;"/>
<path d="M119.994 7.46417L124.539 7.46372C124.245 8.82757 123.782 9.47124 122.985 10.5685C122.295 10.0537 121.08 9.13617 120.192 9.58117L120.087 9.9482C122.088 10.9562 121.608 10.0804 123.163 12.1181C123.27 14.4215 123.025 16.8703 123.232 19.1471C123.274 19.6036 123.516 19.754 123.835 19.9685C126.109 20.3452 127.573 17.3104 126.924 15.3955C126.353 13.7111 125.566 13.2207 124.142 12.407C124.589 10.6253 125.123 9.1931 125.742 7.46798L133.183 7.47385L133.883 8.29766C134.394 8.3352 134.813 7.8529 135.344 7.46854L140.491 7.46289C140.502 10.4576 140.726 17.2053 140.24 20.2229C140.154 20.7559 138.081 21.3276 137.42 21.536L137.42 17.1527C137.416 15.876 137.658 10.1964 137.166 9.53575C136.24 9.16403 134.925 10.118 134.262 10.6766C134.227 12.9634 134.531 17.7876 134.006 20.0257C133.825 20.8005 131.82 21.3069 130.996 21.5461L130.998 9.53136L125.868 9.52908C134.165 13.472 128.173 24.3324 120.522 20.8496C119.618 20.4382 119.965 14.0271 119.881 12.7953C119.389 12.5336 118.713 12.265 118.188 12.0401C118.775 10.7428 119.405 8.86974 119.994 7.46417Z" fill="#3566B5" style="fill:#3566B5;fill:color(display-p3 0.2078 0.4000 0.7098);fill-opacity:1;"/>
<path d="M253.827 7.47026C254.884 7.47595 256.423 7.23557 257.409 7.54901C257.676 7.63399 257.789 8.12282 258.155 8.21051C258.337 7.99358 258.502 7.76616 258.667 7.5368C260.389 7.20833 262.539 7.45373 264.317 7.46239C264.319 9.50013 264.629 18.9668 264.05 20.1534C263.557 21.1618 262.034 21.5046 261.064 21.8369C260.88 17.7625 261.029 13.6153 261.034 9.5331L258.161 9.53129V14.5067C256.357 14.0299 255.333 13.8418 253.528 14.4878C252.606 15.2382 251.538 16.0009 251.325 17.2537C251.243 17.7455 251.28 18.3519 251.568 18.7555C252.109 18.5882 252.616 17.0005 252.894 16.4885C253.334 15.6759 254.42 15.1385 255.27 14.8816C255.966 14.6712 256.842 14.5573 257.505 14.9269C257.712 15.0427 257.906 15.1738 257.969 15.4138C258.16 16.1433 258.367 19.6553 258.016 20.2264C257.453 21.1424 255.786 21.3978 254.825 21.6325C254.818 20.6637 255.074 18.9546 254.399 18.1876L254.143 18.2499C253.508 19.4814 253.633 20.3365 253.687 21.693C248.24 20.4557 246.488 17.1803 250.196 12.6319C247.738 12.3632 247.976 11.5238 248.105 9.30832C248.596 8.49076 249.072 8.04955 249.816 7.47699L252.222 7.46892C252.511 7.88263 252.752 8.35629 253.004 8.79452L253.827 7.47026ZM252.156 9.53016C251.183 9.54223 250.163 9.49365 249.199 9.63167C249.298 9.96272 249.309 10.0036 249.606 10.1839C250.171 10.1513 250.72 9.96302 251.243 10.1713C251.474 10.5035 251.531 10.8131 251.462 11.2152C251.417 11.4772 251.244 11.7378 251.148 11.9885C252.436 11.8583 254.026 10.893 255.651 10.6807C256.017 10.6648 256.592 10.7181 256.864 10.4456C256.852 10.0499 256.834 9.9807 256.594 9.66691C255.903 9.31514 254.648 9.51642 253.858 9.52791L253.037 10.8275L252.156 9.53016Z" fill="#3566B5" style="fill:#3566B5;fill:color(display-p3 0.2078 0.4000 0.7098);fill-opacity:1;"/>
<path d="M147.663 7.46879L151.794 7.46323C151.499 8.88549 151.33 9.31609 150.498 10.5047C149.8 10.0039 148.548 8.97889 147.699 9.63021C147.823 9.90472 149.279 10.4898 149.633 10.7273C151.884 12.2329 152.25 15.8601 151.039 17.9979C151.348 18.867 153.34 19.3411 154.189 19.196C155.549 18.3686 155.092 15.9764 154.489 14.811C153.577 13.8315 152.857 13.3877 151.747 12.702C152.123 11.1539 153.184 8.91542 153.867 7.4663L158.034 7.46029C157.684 8.87046 157.52 9.30298 156.718 10.5152C155.17 9.26993 154.962 9.45988 152.969 9.59987C153.762 9.90104 155.032 10.1057 155.684 10.5654C158.223 12.3246 158.618 16.8263 156.786 19.2024C154.61 22.026 152.151 22.1977 149.427 20.2133C147.328 22.3414 141.573 21.9293 141.762 18.8092C141.946 15.7845 141.037 9.73658 143.035 7.45497C143.89 7.43715 145.236 7.68994 145.766 8.42088C145.813 8.61807 145.892 8.81847 145.848 9.00214L145.842 9.02804C145.766 9.34301 145.233 9.76822 144.974 10.0007C144.949 12.8738 144.877 15.8634 144.959 18.7362C144.976 19.3509 145.114 19.529 145.524 19.8731C147.714 20.5053 149.435 17.8943 148.759 15.9086C148.131 14.0662 147.095 13.6295 145.542 12.7474C146.037 10.8976 146.844 9.19577 147.663 7.46879Z" fill="#3566B5" style="fill:#3566B5;fill:color(display-p3 0.2078 0.4000 0.7098);fill-opacity:1;"/>
<path d="M85.4861 7.46478L90.1303 7.46191C89.6829 8.85819 89.3735 9.44852 88.4487 10.5823C87.7495 10.0173 86.6719 9.18424 85.7227 9.54605L85.5892 9.92358C86.3725 10.7375 87.1157 9.85659 88.6675 12.1825C88.6893 13.2901 88.2714 19.5989 89.208 19.8925C91.3872 20.5756 93.1383 17.4238 92.4304 15.4018C91.8346 13.7001 91.1986 13.2826 89.6449 12.3942C90.012 10.8163 90.7131 9.0126 91.269 7.46582L99.3465 7.46287L99.3504 18.4665C99.3983 20.9402 98.1892 20.9222 96.1411 21.5542L96.143 9.53081L91.4896 9.54177C93.6451 10.7981 95.3441 12.0767 95.3453 14.8213C95.2536 18.8769 92.4796 21.9217 88.2837 21.426C85.464 21.0928 85.4434 20.6091 85.4553 17.8216C85.4622 16.2259 85.4775 14.5261 85.4756 12.9107C84.9259 12.5247 84.3288 12.302 83.7109 12.044L85.4861 7.46478Z" fill="#3566B5" style="fill:#3566B5;fill:color(display-p3 0.2078 0.4000 0.7098);fill-opacity:1;"/>
<path d="M74.0308 12.2535C73.4104 11.7762 72.1021 11.4176 71.9555 10.4533C71.8373 9.6767 72.3592 8.38898 72.3498 7.69613C72.324 5.80283 71.2476 4.61696 73.9264 4.18092C74.3389 4.11367 74.5617 4.18596 74.9081 4.44438C76.2369 6.25059 74.0787 9.39703 75.2701 11.0001C75.7992 11.271 75.5864 11.2193 76.1932 11.1905L76.3229 11.0086C76.2924 10.8644 76.2631 10.72 76.2351 10.5754C75.6046 7.3124 77.2026 6.26295 80.3143 7.92523C81.5803 8.60149 81.0194 10.1459 80.2463 11.1589C80.3055 11.4582 82.0222 13.1079 82.276 14.6735C82.9052 18.5539 81.6209 20.7968 77.8294 21.7209C77.4798 21.1151 77.1181 20.2957 76.8125 19.65L75.5268 21.6739C71.4636 20.3546 73.0478 18.8332 72.717 15.4541C72.6879 15.1553 72.2121 14.9218 71.9603 14.7785C71.943 14.7204 71.9282 14.6616 71.9157 14.6023C71.6914 13.516 73.0176 12.4588 74.0308 12.2535C76.9179 13.3 76.0534 16.5167 76.0271 19.1487C76.5807 18.5487 77.1831 17.9657 77.7638 17.3896C78.1089 17.8587 78.6302 18.8017 78.9443 19.333C81.3047 18.8903 79.4894 13.9737 78.2745 13.1348C77.9386 12.9029 77.6976 12.622 77.2942 12.365C76.0053 12.4135 75.3174 12.3784 74.0308 12.2535Z" fill="#3566B5" style="fill:#3566B5;fill:color(display-p3 0.2078 0.4000 0.7098);fill-opacity:1;"/>
<path d="M223.768 7.46423L228.467 7.45996C228.065 8.8505 227.772 9.29487 226.988 10.4648C225.557 9.21795 225.08 9.4767 223.164 9.60301C225.433 10.4859 225.777 10.0862 227.041 12.3084C227.12 14.2318 226.868 16.9722 227.041 18.8008C227.34 21.9515 232.077 18.5943 230.658 15.8308C229.742 14.0476 229.46 13.6625 227.578 12.7225C228.248 10.8283 228.838 9.31155 229.614 7.46739L234.222 7.46453C234.246 7.63291 234.185 7.85501 234.143 7.98803C233.396 10.3666 233.228 10.5775 230.945 9.55214C230.704 9.4441 229.305 9.58966 228.862 9.63334C230.069 10.4322 231.457 9.96047 232.917 12.4234C233.721 13.8087 233.94 15.4569 233.526 17.0039C232.599 20.5942 228.237 23.4069 224.17 20.2668C223.277 19.5768 224.302 14.2869 223.645 13.0135C223.063 11.8906 222.5 12.2042 222.242 11.7612C222.343 11.0363 223.452 8.31895 223.768 7.46423Z" fill="#3566B5" style="fill:#3566B5;fill:color(display-p3 0.2078 0.4000 0.7098);fill-opacity:1;"/>
<path d="M181.475 7.46335C184.401 7.51372 187.473 7.46272 190.412 7.45996C189.936 9.43748 189.768 10.2405 188.835 12.0362C187.684 11.8645 186.769 11.8935 186.359 10.5965C186.427 10.0462 186.338 10.2201 186.745 9.83876C187.499 9.65294 187.66 9.83513 188.481 10.0522L188.2 9.67454L188.248 9.58182C187.469 9.36849 182.523 9.37925 181.96 9.87252L181.945 10.1911C182.302 10.5967 183.374 10.6687 183.964 10.7571C190.035 11.6661 193.596 19.4531 186.06 21.577C185.777 21.2204 185.44 20.5792 185.205 20.1629C185.163 20.1376 185.024 20.1418 184.964 20.1397L183.846 21.5778C179.697 20.563 181.35 19.1014 180.953 15.7053C180.784 15.4703 180.426 15.32 180.16 15.1835L180.08 14.8907C180.278 14.3885 180.597 14.1848 181.115 14.0653C184.928 13.1882 184.308 17.0637 184.254 19.4581L186.154 17.3678C186.679 17.9944 187.253 18.8151 187.745 19.4836C191.09 16.0986 183.78 13.7595 181.301 13.5497C180.508 13.4826 179.953 13.5254 179.172 13.6038C179.84 12.1591 180.884 9.06024 181.475 7.46335Z" fill="#3566B5" style="fill:#3566B5;fill:color(display-p3 0.2078 0.4000 0.7098);fill-opacity:1;"/>
<path d="M276.886 7.46571L281.602 7.46369C281.166 8.79065 280.828 9.35674 280.028 10.4459C279.881 10.3049 279.728 10.1685 279.57 10.0371C278.617 9.24423 277.356 9.53851 276.148 9.64821C278.387 10.3194 279.44 10.349 280.163 12.7915C280.061 13.6879 279.973 18.8205 280.16 19.502C280.193 19.5222 280.226 19.5415 280.261 19.5592C283.944 21.4789 285.915 15.3744 280.689 12.7479C281.058 11.2597 282.07 8.931 282.687 7.46789L287.354 7.46289C286.529 10.5348 286.37 10.3936 283.764 9.51588C283.597 9.45984 282.172 9.58673 281.885 9.61221C283.157 10.3493 284.012 10.0145 285.351 11.5403C286.385 12.7178 286.902 14.2636 286.78 15.8268C286.567 18.9666 283.96 21.8588 280.756 21.5747C280.064 21.5133 277.492 20.9449 277.23 20.2756C276.35 18.0332 277.588 14.9981 276.629 12.7326C276.386 12.2102 275.932 12.2867 275.51 11.8003C275.332 10.9922 276.519 8.38163 276.886 7.46571Z" fill="#3566B5" style="fill:#3566B5;fill:color(display-p3 0.2078 0.4000 0.7098);fill-opacity:1;"/>
<path d="M169.591 7.46459L178.511 7.46387C178.094 9.43182 177.966 10.2949 176.929 12.053C175.969 11.8599 174.935 11.8837 174.57 10.9194C174.881 8.70924 175.909 10.2611 176.864 9.94408C176.462 9.11323 172.22 9.68701 171.222 9.52399C170.702 9.43916 170.063 9.56371 169.98 10.1888C170.195 10.5747 171.162 10.55 171.696 10.6564C175.792 11.4709 179.92 14.5674 177.894 19.1806C177.309 20.5158 175.58 21.195 174.237 21.5712C174.029 21.3135 173.615 20.6053 173.421 20.2901L173.286 20.133C172.944 20.243 172.28 21.2336 172.02 21.58C167.755 20.5654 169.753 19.1924 169.198 15.8786C169.13 15.4785 168.482 15.5101 168.223 14.971C168.345 14.4915 168.542 14.2727 169.058 14.1316C173.077 13.0322 172.451 16.9659 172.396 19.4675L174.312 17.3589C174.816 18.0015 175.312 18.6514 175.797 19.3085C176.66 19.1214 177.028 18.1902 176.642 17.37C175.213 14.3277 170.498 13.2985 167.375 13.5958C168.133 11.5592 168.872 9.5154 169.591 7.46459Z" fill="#3566B5" style="fill:#3566B5;fill:color(display-p3 0.2078 0.4000 0.7098);fill-opacity:1;"/>
<path d="M306.33 7.46349C306.157 8.58573 305.723 9.49644 305.165 10.4716C302.89 8.6143 302.689 9.97352 301.079 9.90259C300.308 9.86854 299.512 9.46219 298.716 9.39956C298.329 9.36919 297.878 9.40423 297.575 9.66885C297.377 9.84151 297.296 9.91224 297.278 10.173C297.982 10.6226 298.65 11.0021 299.432 11.3101C300.593 10.8595 301.729 10.452 302.937 10.1479C303.941 10.3601 304.588 10.6163 305.225 11.4535C306.097 12.6029 306.207 14.1823 306.015 15.5685C305.675 18.0038 304.252 19.4667 302.377 20.8788C301.835 21.1835 301.237 21.417 300.668 21.6699C301.386 20.2684 302.082 18.8285 302.464 17.2935C302.758 16.1078 302.962 13.9755 302.295 12.8834C302.12 12.5947 301.905 12.3841 301.561 12.3102C300.711 12.1279 299.983 12.643 299.32 13.0834C299.188 15.8929 299.287 18.7472 299.285 21.5618H296.132L296.138 14.1778C296.38 13.9795 296.598 13.7793 296.805 13.5452C296.509 13.1671 295.835 13.0547 295.437 12.7971C295.107 12.5839 294.809 12.2285 294.539 11.9437C295.494 10.4139 296.647 8.94108 297.694 7.46745C298.404 7.45589 299.542 7.30736 300.201 7.49245C300.413 7.55193 300.899 8.03471 301.087 8.02462C301.266 8.01504 301.654 7.52681 301.949 7.48086C303.295 7.27057 304.952 7.45218 306.33 7.46349Z" fill="#3566B5" style="fill:#3566B5;fill:color(display-p3 0.2078 0.4000 0.7098);fill-opacity:1;"/>
<path d="M242.667 7.46947L246.766 7.46484L246.134 10.3976L245.26 9.53169C244.003 9.53171 243.012 9.54794 241.761 9.6518C242.947 10.1712 244.158 10.1861 245.158 11.1698C248.629 14.5869 246.281 21.6379 241.155 21.5712C239.49 21.5496 238.179 21.1523 236.978 19.9789C236.855 17.7908 237.259 15.0834 236.724 13.147C236.55 12.5187 235.726 12.2872 235.125 12.0592C235.687 10.5216 236.266 8.99059 236.864 7.46641L241.512 7.46908C240.598 9.56592 241.021 10.3733 238.703 9.58413C238.216 9.41867 236.805 9.52955 236.218 9.57469C238.018 10.5963 238.228 9.85769 239.988 11.974C240.102 13.1943 239.643 19.4662 240.59 19.8391C242.614 20.6362 244.332 17.8326 243.869 15.844C243.381 13.7485 242.76 13.3875 241.051 12.1345C241.44 10.427 242.002 9.08351 242.667 7.46947Z" fill="#3566B5" style="fill:#3566B5;fill:color(display-p3 0.2078 0.4000 0.7098);fill-opacity:1;"/>
<path d="M102.268 7.46396L106.873 7.46387C106.539 8.46149 106.191 9.45427 105.829 10.4419L104.912 9.52811C103.816 9.52764 102.721 9.55113 101.627 9.59855C103.483 10.4875 104.003 10.0655 105.439 12.0514C105.45 13.996 105.342 16.5295 105.413 18.4387C105.551 22.1518 110.355 18.659 109.311 15.6729C108.518 13.4047 108.346 13.4449 106.412 12.1294C106.841 10.5718 107.494 8.94665 108.134 7.46708L112.209 7.46556C112.072 8.34766 111.746 9.43949 111.511 10.3184L110.69 9.52596C109.453 9.52778 108.457 9.54757 107.226 9.6449C107.855 9.95519 108.516 10.0508 109.142 10.2947C113.658 12.0902 112.955 19.2502 108.817 21.0885C107.097 21.8522 102.931 21.722 102.383 19.5015C101.914 17.5983 102.844 15.022 102.119 13.104C101.874 12.453 101.177 12.2854 100.578 12.0536C101.106 10.5414 101.714 8.97419 102.268 7.46396Z" fill="#3566B5" style="fill:#3566B5;fill:color(display-p3 0.2078 0.4000 0.7098);fill-opacity:1;"/>
<path d="M212.482 7.47405L218.899 7.46484C219.585 9.55239 220.237 11.6837 220.896 13.7824C217.632 13.4781 215.731 14.13 213.747 16.76C213.68 17.6389 213.414 19.0845 214.378 19.553C214.955 17.221 214.202 16.4682 216.723 14.9368C218.951 14.8047 219.468 14.9735 220.95 16.6377C219.327 17.1354 218.903 17.2229 217.62 18.4022C217.196 19.4041 217.108 20.5225 216.986 21.5959C206.23 20.9135 210.721 11.818 218.806 10.9837C218.696 10.5346 218.522 9.9859 218.391 9.53263C217.307 9.53545 212.33 9.23296 211.791 10.0905C212.507 11.0356 213.169 9.82883 214.169 10.2472C214.518 10.8539 214.232 12.0529 213.66 12.4302C212.273 13.346 209.899 12.4686 210.344 10.5089C210.707 8.90488 211.178 8.38812 212.482 7.47405Z" fill="#3566B5" style="fill:#3566B5;fill:color(display-p3 0.2078 0.4000 0.7098);fill-opacity:1;"/>
<path d="M83.57 31.2188C85.0774 31.2557 85.3885 31.8897 86.5811 32.1923C86.6506 32.2098 86.7197 32.2276 86.7903 32.2411L86.8682 31.5811C86.8811 31.5734 86.8938 31.5656 86.9072 31.5587C87.2791 31.3652 88.0608 31.5081 88.4564 31.6215C88.6492 31.6766 88.7217 31.6781 88.8208 31.864C89.2215 32.6144 89.0352 40.2567 88.7304 41.2002C88.43 42.1305 87.8151 42.86 86.9428 43.3011C85.7606 43.8991 83.0946 44.1712 81.8477 43.7471C81.4493 43.6117 81.2519 43.0935 81.0789 42.7403C82.4103 42.75 83.7416 42.7325 85.0722 42.6879C85.124 42.6604 85.1753 42.6323 85.2265 42.6036C86.0385 42.1476 86.647 41.4089 86.8823 40.4905C86.9946 40.0522 86.8548 39.8149 86.6485 39.4521C85.9338 39.3299 85.8346 39.951 85.1905 40.1034C84.0992 40.3617 82.8679 40.2942 81.9023 39.681C80.9951 39.1048 80.4492 38.1205 80.2264 37.0888C79.9279 35.7079 80.0548 34.0949 80.839 32.888C81.5453 31.8011 82.3392 31.4829 83.57 31.2188ZM82.7593 33.7758C82.4897 35.1041 82.1894 36.8504 82.9838 38.0565C83.2972 38.5322 83.7545 38.8289 84.3084 38.9387C84.5561 38.988 84.802 39.0037 85.0538 38.9922C85.9038 38.5077 86.322 37.9841 86.5838 37.0364C86.8779 35.9722 86.8608 34.6718 86.299 33.6938C86.0241 33.2153 85.5971 32.7739 85.0517 32.6247C84.7533 32.5432 84.4385 32.5241 84.1303 32.5267C83.5398 32.8419 83.1737 33.2584 82.7593 33.7758Z" fill="#3566B5" style="fill:#3566B5;fill:color(display-p3 0.2078 0.4000 0.7098);fill-opacity:1;"/>
<path d="M261.401 27.8098C261.889 27.8026 262.452 27.7568 262.923 27.8959C263.117 27.9532 263.413 28.1238 263.509 28.3066C263.836 28.9236 263.899 38.6266 263.582 39.5901C263.525 39.7622 263.455 39.8382 263.299 39.9187C262.815 40.1667 262.054 40.3872 261.522 40.2164L261.416 39.4769C259.643 39.6512 260.038 40.8348 257.366 40.3005C257.06 40.1552 256.739 40.0057 256.458 39.8162C255.565 39.2153 255.012 38.021 254.819 36.9949C254.556 35.6068 254.761 33.9834 255.577 32.8031C256.129 32.003 256.93 31.4749 257.887 31.3016C259.177 31.0684 260.381 31.5618 261.423 32.2841L261.401 27.8098ZM259.839 39.1319C260.758 38.5058 261.153 37.8202 261.36 36.7263C261.56 35.6732 261.477 34.418 260.859 33.5087C260.55 33.0546 260.092 32.6651 259.539 32.5667C259.225 32.5107 258.908 32.5226 258.592 32.5526C257.604 33.3682 257.237 34.1899 257.117 35.4706C257.024 36.4565 257.15 37.6518 257.808 38.4406C258.122 38.8167 258.596 39.1249 259.093 39.1638C259.336 39.1828 259.599 39.1777 259.839 39.1319Z" fill="#3566B5" style="fill:#3566B5;fill:color(display-p3 0.2078 0.4000 0.7098);fill-opacity:1;"/>
<path d="M236.268 27.7945C236.619 27.7679 236.907 27.7506 237.242 27.8735C237.94 28.7554 237.362 30.2273 237.283 31.2463C237.251 31.6355 237.338 31.914 237.592 32.2081C238.37 31.6154 239.263 31.1609 240.263 31.1597C241.185 31.1586 242.057 31.5606 242.703 32.2093C243.674 33.1839 244.059 34.5849 244.053 35.9309C244.045 37.4708 243.562 38.7089 242.469 39.7868C239.218 41.5532 239.317 39.7088 237.58 39.4672C237.497 39.4558 237.416 39.4453 237.332 39.442L237.281 40.1614C236.957 40.3245 236.373 40.2066 236.033 40.1087C235.783 40.0367 235.451 39.9791 235.325 39.7378C235.047 39.2043 235.056 29.041 235.304 28.2677C235.545 27.9281 235.886 27.8804 236.268 27.7945ZM240.132 39.1618C240.574 38.7906 240.993 38.4359 241.35 37.9811C241.653 36.5758 241.969 34.7162 241.131 33.4365C240.835 32.984 240.358 32.6502 239.825 32.5491C239.532 32.4937 239.215 32.5229 238.921 32.5485C237.973 33.2477 237.632 33.9503 237.458 35.1141C237.299 36.1908 237.385 37.4609 238.056 38.3629C238.356 38.7678 238.825 39.0923 239.331 39.1628C239.596 39.2001 239.865 39.1921 240.132 39.1618Z" fill="#3566B5" style="fill:#3566B5;fill:color(display-p3 0.2078 0.4000 0.7098);fill-opacity:1;"/>
<path d="M126.555 31.2148C127.32 31.268 128.053 31.3688 128.712 31.7937C129.628 32.3849 130.147 33.3628 130.37 34.4081C130.677 35.8423 130.502 37.7709 129.682 39.0201C129.214 39.7326 128.442 40.1765 127.618 40.3462C126.267 40.6245 125.061 40.2483 123.939 39.5083C123.727 39.7727 123.829 40.6917 123.83 41.0667L123.834 43.8369C123.641 43.8432 123.448 43.8477 123.254 43.8501C122.763 43.856 122.246 43.8923 121.869 43.5237C121.548 42.799 121.48 33.1463 121.694 32.2507C121.747 32.0275 121.792 31.8229 121.995 31.7009C122.388 31.4662 123.285 31.4077 123.724 31.5186C123.743 31.7852 123.749 32.0407 123.864 32.287C124.784 31.7978 125.513 31.3934 126.555 31.2148ZM126.478 39.1977C127.373 38.6678 127.787 38.1118 128.046 37.0981C128.326 36.0003 128.308 34.6371 127.715 33.6391C127.417 33.1374 126.973 32.7145 126.393 32.5731C126.078 32.4963 125.735 32.5213 125.415 32.5441C124.511 33.17 124.129 33.8914 123.932 34.9715C123.736 36.0428 123.824 37.3259 124.462 38.2442C124.742 38.6481 125.188 39.0531 125.683 39.1422C125.94 39.1884 126.218 39.2051 126.478 39.1977Z" fill="#3566B5" style="fill:#3566B5;fill:color(display-p3 0.2078 0.4000 0.7098);fill-opacity:1;"/>
<path d="M56.6477 28.3239C57.2563 28.3181 58.1441 28.193 58.6104 28.6609C59.0551 29.107 58.8346 38.7883 58.8364 40.1967C58.0547 40.2368 57.0809 40.3541 56.3306 40.0743C55.9586 39.9356 55.7389 39.7412 55.5137 39.4209C54.3145 37.7163 52.1309 32.4122 51.0934 30.1977L51.1068 40.2473C50.4774 40.2347 49.712 40.3269 49.1572 39.9917C49.0874 39.8988 48.9596 39.7701 48.9143 39.6681C48.5802 38.9158 48.8347 29.8431 48.839 28.328C49.6238 28.3164 50.6068 28.2142 51.3479 28.4881C51.6277 28.5914 51.8796 28.7542 52.0596 28.994C53.3327 30.6896 55.6065 36.2579 56.6549 38.5034L56.6477 28.3239Z" fill="#3566B5" style="fill:#3566B5;fill:color(display-p3 0.2078 0.4000 0.7098);fill-opacity:1;"/>
<path d="M248.946 31.2244C251.501 30.9751 253.774 32.8472 254.02 35.404C254.267 37.9605 252.391 40.2317 249.834 40.4741C247.283 40.716 245.018 38.8453 244.772 36.2935C244.527 33.7416 246.395 31.4732 248.946 31.2244ZM249.609 39.4937C250.581 38.9618 251.091 38.3889 251.409 37.3116C251.756 36.1392 251.732 34.6742 251.138 33.5823C250.794 32.9524 250.27 32.4917 249.578 32.2864C249.456 32.2505 249.333 32.226 249.208 32.2133C248.202 32.7483 247.711 33.2824 247.375 34.3872C247.018 35.5574 247.046 36.9998 247.636 38.0928C247.965 38.7035 248.479 39.1989 249.154 39.4003C249.303 39.4434 249.455 39.4746 249.609 39.4937Z" fill="#3566B5" style="fill:#3566B5;fill:color(display-p3 0.2078 0.4000 0.7098);fill-opacity:1;"/>
<path d="M64.3879 31.2256C66.9193 30.9775 69.1794 32.8119 69.4581 35.3406C69.7366 37.8692 67.9301 40.1517 65.4053 40.461C63.7447 40.6643 62.103 39.9589 61.1074 38.6141C60.1118 37.2694 59.9161 35.4931 60.5951 33.9638C61.274 32.4346 62.7228 31.3887 64.3879 31.2256ZM65.0894 39.4845C66.1213 38.8709 66.6321 38.2425 66.9325 37.0604C67.2246 35.9116 67.1466 34.5442 66.5291 33.5112C66.1348 32.8516 65.6015 32.4394 64.8538 32.2448C64.803 32.2315 64.7517 32.2207 64.7 32.2123C63.7636 32.6486 63.2547 33.1054 62.8971 34.0922C62.4732 35.2625 62.4437 36.7764 62.9819 37.9171C63.2881 38.5661 63.7884 39.12 64.4808 39.3569C64.6762 39.4237 64.8852 39.4575 65.0894 39.4845Z" fill="#3566B5" style="fill:#3566B5;fill:color(display-p3 0.2078 0.4000 0.7098);fill-opacity:1;"/>
<path d="M285.992 28.3453C288.207 28.3144 291.417 27.9993 293.154 29.6601C293.773 30.2512 294.094 31.0502 294.114 31.8997C294.135 32.863 293.786 33.846 293.115 34.5444C291.998 35.7073 290.522 35.8618 288.998 35.8971L287.731 35.8953L287.737 40.2242C287.061 40.2531 286.296 40.3528 285.74 39.899C285.501 39.5339 285.504 39.0065 285.485 38.584C285.399 36.7171 285.252 30.5338 285.569 29.041C285.626 28.7728 285.812 28.5435 285.992 28.3453ZM287.731 34.835C289.045 34.8446 289.953 34.8785 291.111 34.1579C291.569 33.3272 291.959 32.1554 291.678 31.2041C291.48 30.5369 290.98 30.0726 290.384 29.7567C289.549 29.3142 288.641 29.4002 287.728 29.4202L287.731 34.835Z" fill="#3566B5" style="fill:#3566B5;fill:color(display-p3 0.2078 0.4000 0.7098);fill-opacity:1;"/>
<path d="M222.301 31.4662C225.383 31.526 228.471 31.389 231.552 31.5392C231.925 31.7367 232.275 31.9612 232.575 32.2571C233.764 33.4259 233.621 35.7274 233.629 37.2543C233.632 37.9942 233.76 39.4481 233.203 39.987C232.829 40.3492 231.817 40.2512 231.317 40.251C231.317 38.6735 231.386 37.0954 231.383 35.5178C231.381 34.6377 231.345 33.5693 230.668 32.9116C230.339 32.5913 229.977 32.5007 229.529 32.5073C229.326 32.5103 229.261 32.6402 229.126 32.7802C228.812 33.6089 228.979 34.7439 229.003 35.6228L229.015 40.2429C228.374 40.2515 227.575 40.3346 227.042 39.9295C226.422 38.8752 226.773 34.0093 226.785 32.5241L224.544 32.5324L224.545 40.2387C223.892 40.2483 223.188 40.3231 222.623 39.9457C221.978 39.2518 222.298 32.682 222.301 31.4662Z" fill="#3566B5" style="fill:#3566B5;fill:color(display-p3 0.2078 0.4000 0.7098);fill-opacity:1;"/>
<path d="M161.433 7.46777L166.072 7.46797C165.62 8.68017 165.355 9.33795 164.745 10.4737C164.272 9.99962 163.579 9.27636 162.871 9.63806C162.907 10.1414 163.187 10.3188 163.553 10.7733C163.601 12.3824 163.335 18.5242 163.801 19.5625L164.012 19.5233C164.415 18.9475 164.512 18.2874 164.66 17.6045C163.999 16.1784 162.831 15.0299 164.741 13.9161C168.412 16.4853 164.063 24.8304 160.407 20.0525C160.32 17.3214 160.386 14.2178 160.38 11.4569C160.143 11.1033 159.781 10.663 159.516 10.3168L161.433 7.46777Z" fill="#3566B5" style="fill:#3566B5;fill:color(display-p3 0.2078 0.4000 0.7098);fill-opacity:1;"/>
<path d="M98.3203 28.3252C98.7547 28.3246 99.3758 28.2656 99.7909 28.381C100.037 28.4494 100.284 28.5971 100.409 28.824C100.678 29.3118 100.661 39.0229 100.42 39.8203C100.097 40.1961 99.6642 40.2304 99.2034 40.3112C98.888 40.2895 98.653 40.2603 98.3734 40.1054C98.0491 38.7421 98.3137 36.0061 98.3279 34.4779L93.0148 34.4845L93.0238 40.2511C92.3641 40.249 91.5944 40.3322 91.0391 39.9278C90.8186 39.6084 90.803 39.2388 90.7753 38.8639C90.6425 37.0688 90.5472 30.5856 90.8443 29.0855C90.9006 28.8016 91.0728 28.5671 91.2578 28.3515L93.0243 28.3285L93.0205 33.3058L98.3237 33.3084L98.3203 28.3252Z" fill="#3566B5" style="fill:#3566B5;fill:color(display-p3 0.2078 0.4000 0.7098);fill-opacity:1;"/>
<path d="M204.216 7.46822L208.797 7.46582C208.388 8.61177 208.104 9.26721 207.561 10.3569C207.096 9.9242 206.22 9.22099 205.587 9.62221C205.642 10.1283 205.927 10.3183 206.294 10.7682C206.295 12.1058 206.108 18.6839 206.594 19.4967L206.83 19.4685C207.225 19.0285 207.366 18.2702 207.52 17.6831L206.421 15.2938C206.765 14.5953 206.879 14.3098 207.451 13.7868C209.848 15.7257 208.782 19.8995 206.306 21.2884C205.552 21.7105 204.821 21.4167 204.064 21.1609C203.792 20.881 203.434 20.3692 203.19 20.0435C203.196 17.1624 203.205 14.2006 203.195 11.3123C203.193 10.8137 202.827 10.6933 202.375 10.3076C202.455 9.79807 203.833 7.99686 204.216 7.46822Z" fill="#3566B5" style="fill:#3566B5;fill:color(display-p3 0.2078 0.4000 0.7098);fill-opacity:1;"/>
<path d="M216.666 31.2466C216.977 31.1835 217.35 31.2514 217.663 31.2849C218.622 31.3871 219.332 31.6893 219.943 32.4527C221.128 33.9327 221.02 36.8717 220.822 38.6581C220.756 39.2561 220.679 39.7112 220.197 40.0959C218.846 40.4569 216.406 40.3551 215.019 40.1411C214.058 39.9928 213.486 39.5863 212.917 38.8149C212.848 38.6431 212.789 38.4668 212.742 38.2873C212.583 37.6373 212.606 36.7943 212.969 36.2146C213.981 34.5983 216.394 35.2082 217.937 34.8513C218.35 34.7559 218.457 34.617 218.673 34.2799C218.685 33.8611 218.525 33.4484 218.286 33.1064C217.385 31.819 214.918 32.8123 213.576 32.5661L213.484 32.2525C214.405 31.4398 215.501 31.4122 216.666 31.2466ZM216.841 39.1721C217.392 39.1781 217.832 39.2619 218.322 38.9964C218.855 38.1381 218.508 36.824 218.535 35.8361L216.528 35.8668C215.938 36.0038 215.471 36.148 215.127 36.697C214.894 37.0694 214.804 37.5099 214.912 37.9394C215.014 38.3503 215.287 38.6917 215.648 38.9071C215.987 39.1086 216.45 39.1852 216.841 39.1721Z" fill="#3566B5" style="fill:#3566B5;fill:color(display-p3 0.2078 0.4000 0.7098);fill-opacity:1;"/>
<path d="M272.991 31.2482C273.321 31.1841 273.706 31.2559 274.037 31.2964C274.98 31.4115 275.665 31.7205 276.255 32.4821C277.419 33.9823 277.309 37.1038 277.072 38.8961C277.028 39.2236 276.92 39.8135 276.645 40.0153C276.069 40.4395 272.188 40.2632 271.375 40.15C270.38 40.0111 269.788 39.6011 269.189 38.8137C269.123 38.5489 269.062 38.2807 269.024 38.0104C268.932 37.3628 269.029 36.4496 269.438 35.9194C270.486 34.5631 272.737 35.2121 274.165 35.0192C274.476 34.9771 274.599 34.9214 274.782 34.676C274.784 34.126 274.743 33.6423 274.612 33.107C273.546 31.6212 271.021 33.0711 269.587 32.5128C269.61 32.4404 269.641 32.3653 269.686 32.3037C270.308 31.4445 272.03 31.3799 272.991 31.2482ZM273.143 39.1696C273.724 39.176 274.136 39.2687 274.639 38.958C275.105 38.0791 274.782 36.8151 274.808 35.832L272.817 35.8658C272.227 36.0017 271.775 36.1413 271.435 36.6931C271.207 37.0643 271.119 37.4939 271.219 37.9208C271.315 38.3318 271.572 38.6866 271.934 38.9042C272.276 39.1084 272.748 39.1778 273.143 39.1696Z" fill="#3566B5" style="fill:#3566B5;fill:color(display-p3 0.2078 0.4000 0.7098);fill-opacity:1;"/>
<path d="M161.913 31.2516C162.325 31.174 162.931 31.2681 163.34 31.35C164.191 31.5198 164.862 31.943 165.346 32.6695C166.284 34.0788 166.283 37.6348 165.937 39.2914C165.867 39.63 165.804 39.8137 165.506 40.0047C164.505 40.6488 161.283 40.3216 160.127 40.0582C159.155 39.8371 158.621 39.5137 158.083 38.6636C157.879 37.9149 157.807 37.0795 158.172 36.3664C159.176 34.4015 161.636 35.3735 163.253 34.8278C163.63 34.7007 163.687 34.5716 163.849 34.2369C163.837 33.7642 163.66 33.3174 163.38 32.9365C162.332 31.5034 160.514 32.9916 159.136 32.7738C158.874 32.7325 158.852 32.7097 158.697 32.4993C158.712 32.4297 158.733 32.3684 158.777 32.3107C159.49 31.3671 160.849 31.3762 161.913 31.2516ZM162.038 39.1695C162.409 39.1865 163.084 39.2956 163.401 39.0941L163.422 39.0806C163.605 38.9645 163.753 38.6562 163.798 38.4484C163.964 37.6645 163.729 36.6607 163.759 35.8342L161.676 35.871C161.109 36.0283 160.664 36.1803 160.35 36.7266C160.125 37.1179 160.05 37.55 160.176 37.9871C160.301 38.4169 160.577 38.7468 160.97 38.9555C161.274 39.1156 161.699 39.1744 162.038 39.1695Z" fill="#3566B5" style="fill:#3566B5;fill:color(display-p3 0.2078 0.4000 0.7098);fill-opacity:1;"/>
<path d="M189.264 31.2353C189.947 31.1772 190.83 31.4164 191.421 31.7523C192.436 32.3295 193.297 33.35 193.6 34.486C193.803 35.2423 193.654 35.8288 193.273 36.493L187.381 36.5035C187.51 37.0575 187.636 37.6848 187.917 38.1823C188.222 38.7204 188.648 39.1593 189.264 39.3236C190.24 39.5841 191.081 39.0806 191.897 38.6124C192.154 38.4908 192.352 38.5417 192.618 38.5959L192.762 38.8359C192.755 38.9513 192.767 39.1452 192.701 39.2351C192.204 39.9124 191.231 40.2792 190.425 40.4033C189.181 40.5947 187.793 40.3815 186.764 39.6215C185.805 38.9112 185.252 37.8191 185.082 36.6505C184.893 35.3504 185.153 33.98 185.95 32.9188C186.808 31.779 187.907 31.4287 189.264 31.2353ZM187.344 35.4367L189.295 35.4354C189.812 35.4361 190.699 35.5423 191.148 35.3025C191.351 34.9115 191.479 34.6502 191.331 34.1991C191.144 33.6247 190.623 32.6976 190.066 32.4298C189.842 32.3222 189.549 32.2547 189.304 32.2184C188.357 32.7857 187.872 33.2407 187.596 34.3374C187.506 34.7023 187.422 35.0688 187.344 35.4367Z" fill="#3566B5" style="fill:#3566B5;fill:color(display-p3 0.2078 0.4000 0.7098);fill-opacity:1;"/>
<path d="M106.315 38.3972C106.715 36.9011 107.926 32.7448 108.905 31.7875C109.354 31.3489 110.325 31.4659 110.918 31.471L108.678 37.3845C107.946 39.0584 107.529 41.2377 106.348 42.6598C105.755 43.3741 104.988 43.7558 104.068 43.8404C103.58 43.8851 102.86 43.9311 102.464 43.6028C102.286 43.3089 102.211 43.2121 102.204 42.8659C102.567 42.5401 103.311 42.77 103.777 42.6105C104.219 42.4593 104.634 42.0142 104.827 41.5994C104.982 41.2673 105.029 40.9757 104.964 40.6144C104.628 38.7472 102.344 33.585 101.578 31.4788C102.253 31.4636 103.044 31.3851 103.658 31.7057C104.489 32.1392 105.954 37.2645 106.315 38.3972Z" fill="#3566B5" style="fill:#3566B5;fill:color(display-p3 0.2078 0.4000 0.7098);fill-opacity:1;"/>
<path d="M132.647 22.4512C133.101 22.6462 133.371 23.1343 133.646 23.5238C133.543 24.7883 133.314 25.9509 132.694 27.0738C132.125 28.1047 131.286 28.9504 130.13 29.2792C128.61 29.7116 127.271 29.1864 125.954 28.4517C125.672 28.2334 125.391 28.0106 125.131 27.7662C124.582 27.2491 124.094 26.7229 124.07 25.9287C124.244 25.4961 124.387 25.2656 124.835 25.0582C125.679 24.6679 126.774 24.5928 127.691 24.4132C129.503 24.0587 131.059 23.3787 132.647 22.4512ZM127.596 26.5044C128.666 26.7327 129.719 26.3205 130.616 25.7351C131.235 25.3313 131.696 24.8253 131.996 24.1492L131.994 24.0166C131.291 24.4634 127.596 26.09 127.477 26.2578L127.596 26.5044Z" fill="#3566B5" style="fill:#3566B5;fill:color(display-p3 0.2078 0.4000 0.7098);fill-opacity:1;"/>
<path d="M70.5967 31.4697C72.4397 31.4768 76.5226 30.9856 77.8432 32.163C78.5777 32.8179 78.8318 33.8629 78.8851 34.8097C78.9433 35.8434 79.2061 39.3337 78.6037 40.0084C78.0498 40.315 77.2592 40.2431 76.6367 40.2527L76.6419 34.6094C76.6433 34.5532 76.6436 34.4971 76.6428 34.4407C76.6344 33.9023 76.5798 33.3417 76.1648 32.951C75.4412 32.2698 73.7889 32.5144 72.8622 32.5349L72.8765 40.2647C72.3092 40.2448 71.3289 40.3647 70.9033 39.9312C70.3009 39.3175 70.595 32.6188 70.5967 31.4697Z" fill="#3566B5" style="fill:#3566B5;fill:color(display-p3 0.2078 0.4000 0.7098);fill-opacity:1;"/>
<path d="M167.604 31.4568C168.951 31.5149 170.31 31.4475 171.66 31.4508C172.672 31.4532 174.024 31.3704 174.783 32.1382C176.158 33.5333 175.969 36.0838 175.961 37.8801C175.958 38.5102 175.994 39.4963 175.509 39.9684C175.119 40.3477 174.123 40.2434 173.604 40.2413L173.627 34.6096C173.628 34.5668 173.63 34.524 173.63 34.4813C173.624 33.9611 173.479 33.3148 173.092 32.949C172.385 32.28 170.741 32.5141 169.834 32.5338L169.844 40.2371L169.754 40.2386C169.052 40.25 168.283 40.3489 167.738 39.8211C167.251 38.4226 167.591 33.2502 167.604 31.4568Z" fill="#3566B5" style="fill:#3566B5;fill:color(display-p3 0.2078 0.4000 0.7098);fill-opacity:1;"/>
<path d="M148.515 31.4628C150.335 31.5266 152.332 31.2027 154.117 31.5188C155.37 31.7406 155.896 32.2357 156.608 33.2601C156.648 33.5173 156.681 33.7759 156.707 34.0352C156.83 35.349 157.165 39.0949 156.385 40.0354C155.831 40.3142 155.09 40.2423 154.479 40.2428C154.554 38.371 154.516 36.4829 154.527 34.6089C154.527 34.5996 154.527 34.5901 154.527 34.5808C154.519 34.0324 154.409 33.316 153.997 32.9282C153.288 32.2644 151.615 32.5109 150.708 32.5332L150.719 40.2337C150.067 40.2489 149.309 40.3262 148.756 39.9333C148.176 38.8201 148.508 33.0547 148.515 31.4628Z" fill="#3566B5" style="fill:#3566B5;fill:color(display-p3 0.2078 0.4000 0.7098);fill-opacity:1;"/>
<path d="M112.111 31.5058L113.936 31.4591C113.961 33.2277 113.824 34.9971 113.857 36.7599C113.869 37.4007 113.957 38.1045 114.451 38.5683C115.346 39.407 116.649 39.1957 117.774 39.1697L117.773 31.4508C118.361 31.4478 119.045 31.381 119.594 31.6093C119.946 31.9847 119.935 32.1656 120.006 32.6571L120.011 40.235C118.038 40.1957 114.503 40.7875 112.915 39.5821C112.206 39.0439 111.872 38.2063 111.757 37.3458C111.598 36.1601 111.413 32.4182 112.111 31.5058Z" fill="#3566B5" style="fill:#3566B5;fill:color(display-p3 0.2078 0.4000 0.7098);fill-opacity:1;"/>
<path d="M199.166 5.99637L201.606 5.98535C195.725 11.8036 195.968 19.4586 201.428 25.439L201.464 25.5132C201.159 25.6852 199.609 25.6101 199.156 25.6051C194.156 19.4087 194.153 12.174 199.166 5.99637Z" fill="#3566B5" style="fill:#3566B5;fill:color(display-p3 0.2078 0.4000 0.7098);fill-opacity:1;"/>
<path d="M265.285 6.00099L267.724 5.99707C271.825 10.9957 272.816 17.6947 269.275 23.3799C268.889 24.0004 268.157 25.389 267.447 25.6064L265.211 25.6136C271.275 19.6919 270.864 12.0598 265.285 6.00099Z" fill="#3566B5" style="fill:#3566B5;fill:color(display-p3 0.2078 0.4000 0.7098);fill-opacity:1;"/>
<path d="M207.588 28.2277C208.356 28.1818 209.134 28.1601 209.894 28.3205C210.529 28.4549 211.775 28.7317 212.155 29.3155L212.045 29.5854C210.66 30.3685 208.844 28.8242 207.019 29.5951C206.221 29.9313 205.732 30.5628 205.412 31.3492C204.748 32.9768 204.615 35.3568 205.31 36.9931C205.723 37.963 206.621 38.9169 207.612 39.306C208.514 39.6601 209.607 39.2783 210.442 38.9091C210.631 38.8061 210.853 38.6712 211.06 38.6125C211.424 38.5104 211.602 38.5837 211.912 38.749L211.994 39.0873C211.952 39.21 211.897 39.3285 211.817 39.432C211.383 40.0018 210.461 40.2858 209.786 40.3894C208.086 40.6502 206.208 40.3484 204.807 39.3115C203.564 38.3927 202.794 36.9892 202.571 35.4691C202.318 33.7253 202.6 31.8507 203.673 30.4155C204.655 29.1035 205.995 28.4617 207.588 28.2277Z" fill="#3566B5" style="fill:#3566B5;fill:color(display-p3 0.2078 0.4000 0.7098);fill-opacity:1;"/>
<path d="M136.155 28.3464C138.034 28.3292 140.037 28.1542 141.903 28.3355C142.263 28.3704 142.653 28.4191 142.898 28.7151L142.857 29.0142C142.774 29.0896 142.59 29.306 142.497 29.3411C141.653 29.6623 138.928 29.4231 137.899 29.4228L137.9 33.7238C138.98 33.7142 141.787 33.3642 142.603 34.0124C142.482 34.4194 142.28 34.5236 141.963 34.7853L137.9 34.7877L137.901 40.2301C137.203 40.2512 136.483 40.3531 135.902 39.892C135.681 39.5493 135.681 39.0939 135.657 38.6986C135.547 36.871 135.449 30.5992 135.729 29.0845C135.783 28.7959 135.964 28.5612 136.155 28.3464Z" fill="#3566B5" style="fill:#3566B5;fill:color(display-p3 0.2078 0.4000 0.7098);fill-opacity:1;"/>
<path d="M240.244 22.483C240.508 22.4503 240.781 22.4333 241.047 22.4581C241.795 22.5281 242.691 22.6095 243.197 23.2231C243.9 24.7927 242.136 25.6734 241.942 26.9407C241.934 26.9956 241.927 27.0497 241.924 27.1053C242.071 27.2197 242.181 27.343 242.371 27.3616C242.735 27.3972 243.033 27.3153 243.316 27.076C244.37 26.182 243.579 24.4634 243.663 23.2918C243.706 23.2276 243.841 22.9871 243.903 22.9693C244.188 22.8852 244.464 22.908 244.727 23.0556C245.065 23.2445 245.251 23.5994 245.353 23.9592C245.718 25.2372 245.398 26.5638 244.774 27.6891C244.678 27.8275 244.575 27.9618 244.469 28.0915C243.982 28.6739 243.068 29.299 242.295 29.3591C241.371 29.4309 239.442 29.1826 238.724 28.564C238.511 28.3793 238.381 28.1527 238.369 27.8619C238.304 26.4568 240.612 25.1516 241.461 24.2194L241.422 23.9473C241.019 24.235 240.685 24.6205 240.344 24.9779C240.029 25.1145 239.6 25.0477 239.274 24.9657C238.887 24.8684 238.745 24.6724 238.553 24.355C238.534 24.0949 238.549 23.8692 238.664 23.6304C239.005 22.9266 239.555 22.7199 240.244 22.483Z" fill="#3566B5" style="fill:#3566B5;fill:color(display-p3 0.2078 0.4000 0.7098);fill-opacity:1;"/>
<path d="M161.92 0.441406C163.136 0.52134 164.274 1.21331 163.806 2.58225C162.945 3.40803 162.318 2.77707 161.022 2.95805L160.956 3.15289L161.361 3.75973C163.478 4.99838 164.78 2.82556 165.731 1.4072C166.438 0.351612 168.54 0.888087 169.369 1.66904L169.262 1.86346C168.104 2.76356 167.349 4.50795 166.005 5.2507C162.684 7.08546 160.138 4.91192 158.453 2.20502C159.584 1.14984 160.39 0.64116 161.92 0.441406Z" fill="#3566B5" style="fill:#3566B5;fill:color(display-p3 0.2078 0.4000 0.7098);fill-opacity:1;"/>
<path d="M92.0743 1.4834C94.207 1.68372 94.6847 2.19148 96.083 3.55051C96.8213 2.6132 97.5831 2.2642 98.5919 3.0788C99.4537 4.29425 98.0618 5.52039 97.1998 6.16794C93.9265 5.69631 92.4284 5.82231 89.3463 5.58564L89.1797 5.23209C89.2138 3.52364 90.3271 1.82696 92.0743 1.4834ZM95.0789 4.67818L95.3436 4.71958C94.5266 3.93983 92.9965 3.50477 91.8764 3.52786C91.712 3.53152 91.5478 3.54287 91.3844 3.56188L90.808 3.90969L90.7588 4.14179C91.4135 4.48922 93.6076 4.23112 95.0789 4.67818Z" fill="#3566B5" style="fill:#3566B5;fill:color(display-p3 0.2078 0.4000 0.7098);fill-opacity:1;"/>
<path d="M200.955 27.1576L202.836 27.1523C202.062 28.3886 201.392 29.6346 200.993 31.0482C199.921 34.8487 200.799 37.9131 202.668 41.2445L202.575 41.4467C201.973 41.4779 201.413 41.5647 200.909 41.1755C199.311 39.9453 198.565 37.4451 198.319 35.5044C197.925 32.406 199.087 29.5614 200.955 27.1576Z" fill="#3566B5" style="fill:#3566B5;fill:color(display-p3 0.2078 0.4000 0.7098);fill-opacity:1;"/>
<path d="M277.941 27.169L279.807 27.1562C281.043 28.7948 281.993 30.5509 282.37 32.5973C282.972 35.8768 281.748 38.6773 279.942 41.3064C279.34 41.5429 278.547 41.4396 277.906 41.4217C278.816 40.1911 279.499 38.6937 279.87 37.2162C280.795 33.5177 279.849 30.348 277.941 27.169Z" fill="#3566B5" style="fill:#3566B5;fill:color(display-p3 0.2078 0.4000 0.7098);fill-opacity:1;"/>
<path d="M296.581 27.806C296.95 27.7963 297.495 27.7108 297.81 27.9269C297.9 28.9231 298.036 39.7512 297.725 40.1996L297.067 40.3047C296.782 40.27 296.416 40.2541 296.151 40.1418C295.923 40.0452 295.785 39.9195 295.695 39.6883C295.432 39.0089 295.44 28.8617 295.69 28.357C295.885 27.9628 296.199 27.9289 296.581 27.806Z" fill="#3566B5" style="fill:#3566B5;fill:color(display-p3 0.2078 0.4000 0.7098);fill-opacity:1;"/>
<path d="M181.265 31.2387C181.652 31.1876 182.153 31.2767 182.533 31.3545C183.105 31.4714 184.065 31.6432 184.404 32.1817C184.461 32.2724 184.379 32.5044 184.355 32.6152C183.233 33.0965 181.949 32.064 180.723 32.6705C180.169 32.9444 179.822 33.4641 179.625 34.0328C179.239 35.1473 179.169 36.8876 179.697 37.9721C179.978 38.5454 180.415 38.9667 181.027 39.1726C182.143 39.5473 182.954 39.0496 183.928 38.5694C184.276 38.784 184.425 38.9987 184.532 39.374C184.505 39.4393 184.472 39.5013 184.431 39.5588C184.084 40.0436 182.853 40.342 182.295 40.429C181.078 40.6186 179.847 40.3726 178.849 39.6368C177.874 38.9187 177.262 37.777 177.083 36.5914C176.892 35.3304 177.155 33.9834 177.925 32.9522C178.783 31.8045 179.9 31.4378 181.265 31.2387Z" fill="#3566B5" style="fill:#3566B5;fill:color(display-p3 0.2078 0.4000 0.7098);fill-opacity:1;"/>
<path d="M267.48 31.5607L267.58 31.6577C267.929 33.6514 267.657 38.0145 267.654 40.2564L265.764 40.1756C265.761 40.1704 265.756 40.1651 265.752 40.1596C265.746 40.1504 265.741 40.1407 265.735 40.1316C265.442 39.7032 265.403 39.358 265.384 38.8521C265.337 37.6431 265.076 32.5494 265.768 31.7989C266.265 31.5008 266.92 31.5672 267.48 31.5607Z" fill="#3566B5" style="fill:#3566B5;fill:color(display-p3 0.2078 0.4000 0.7098);fill-opacity:1;"/>
<path d="M146.584 31.5691C146.905 32.2626 146.674 38.93 146.683 40.2408C146.003 40.2467 145.365 40.2115 144.694 40.1052C144.167 39.0329 144.393 37.1227 144.387 35.9321C144.383 35.0543 144.165 32.4225 144.789 31.8233C145.155 31.4715 146.107 31.5712 146.584 31.5691Z" fill="#3566B5" style="fill:#3566B5;fill:color(display-p3 0.2078 0.4000 0.7098);fill-opacity:1;"/>
<path d="M67.9339 22.3164C68.3317 22.3891 68.7927 22.452 69.1415 22.6658C69.6685 22.989 69.8908 23.5548 70.0272 24.1301C70.3189 25.3614 70.1182 26.9999 69.4415 28.0803C68.94 28.8809 68.2313 29.0453 67.3731 29.2455C67.0501 29.1959 66.7776 29.1094 66.4766 28.9831C66.7776 28.4301 67.1994 27.7953 67.3788 27.1957C67.8316 25.6814 66.3736 24.5872 66.6932 23.3374C67.0734 22.8981 67.4312 22.6071 67.9339 22.3164Z" fill="#3566B5" style="fill:#3566B5;fill:color(display-p3 0.2078 0.4000 0.7098);fill-opacity:1;"/>
<path d="M291.063 18.6493C291.19 18.6397 291.352 18.7125 291.473 18.7513C291.789 19.4435 291.612 20.6834 291.491 21.4251C291.164 21.67 290.232 21.5596 289.808 21.5548L289.358 21.5119C288.96 20.925 289.17 19.4046 289.193 18.6808L291.063 18.6493Z" fill="#3566B5" style="fill:#3566B5;fill:color(display-p3 0.2078 0.4000 0.7098);fill-opacity:1;"/>
<path d="M145.332 27.3749C146.053 27.2459 146.754 27.6879 146.948 28.3946C147.142 29.1013 146.765 29.8394 146.079 30.0969C145.576 30.2856 145.01 30.1738 144.617 29.8081C144.223 29.4423 144.07 28.8857 144.222 28.3703C144.373 27.8549 144.803 27.4695 145.332 27.3749Z" fill="#3566B5" style="fill:#3566B5;fill:color(display-p3 0.2078 0.4000 0.7098);fill-opacity:1;"/>
<path d="M266.309 27.3809C267.044 27.2544 267.75 27.7238 267.918 28.4504C268.086 29.1772 267.657 29.9088 266.942 30.1178C266.441 30.264 265.9 30.121 265.537 29.7463C265.174 29.3718 265.049 28.827 265.21 28.331C265.372 27.835 265.795 27.4692 266.309 27.3809Z" fill="#3566B5" style="fill:#3566B5;fill:color(display-p3 0.2078 0.4000 0.7098);fill-opacity:1;"/>
<path d="M280.333 15.5127C280.864 15.551 282.954 15.601 283.185 15.7695C282.652 17.0418 281.607 17.4606 280.328 17.8422C280.417 16.8963 280.399 16.4611 280.333 15.5127Z" fill="#3566B5" style="fill:#3566B5;fill:color(display-p3 0.2078 0.4000 0.7098);fill-opacity:1;"/>
<path d="M227.352 15.5293C228.311 15.6325 229.282 15.6407 230.245 15.6741L229.563 16.7207C228.922 17.2262 228.102 17.5301 227.362 17.8654L227.352 15.5293Z" fill="#3566B5" style="fill:#3566B5;fill:color(display-p3 0.2078 0.4000 0.7098);fill-opacity:1;"/>
<path d="M306.661 39.6067C300.831 42.8391 296.265 35.9899 301.044 31.9137C301.85 31.226 306.46 30.7711 306.466 32.5073C306.338 32.6824 306.256 32.8679 306.033 32.8604C304.675 32.8137 303.154 31.5901 302.142 33.202C301.178 34.7373 301.085 37.9963 302.804 39.1438C304.37 40.1885 305.11 38.038 306.661 39.0611V39.6067Z" fill="#3566B5" style="fill:#3566B5;fill:color(display-p3 0.2078 0.4000 0.7098);fill-opacity:1;"/>
</svg>
