<svg width="24" height="24" viewBox="0 0 24 24" fill="none" xmlns="http://www.w3.org/2000/svg">
<path d="M4.61816 22.2002C3.50195 22.2002 2.85156 21.4883 2.85156 20.3105V2.9873C2.85156 1.81836 3.50195 1.09766 4.61816 1.09766H14.5146C15.6221 1.09766 16.2725 1.81836 16.2725 2.9873V5.52734H19.3838C20.4912 5.52734 21.1504 6.24805 21.1504 7.42578V20.3105C21.1504 21.4883 20.4912 22.2002 19.3838 22.2002H4.61816ZM5.08398 20.3809H6.85059V17.9814C6.85059 17.2783 7.19336 16.9092 7.86133 16.9092H11.2715C11.9395 16.9092 12.2822 17.2783 12.2822 17.9814V20.3809H14.0488C14.3125 20.3809 14.4443 20.2402 14.4443 19.9766V3.33008C14.4443 3.06641 14.3125 2.92578 14.0488 2.92578H5.08398C4.82031 2.92578 4.67969 3.06641 4.67969 3.33008V19.9766C4.67969 20.2402 4.82031 20.3809 5.08398 20.3809ZM6.87695 7.74219C6.66602 7.74219 6.53418 7.61035 6.53418 7.39941V5.79102C6.53418 5.58008 6.66602 5.43945 6.87695 5.43945H8.52051C8.73145 5.43945 8.86328 5.58008 8.86328 5.79102V7.39941C8.86328 7.61035 8.73145 7.74219 8.52051 7.74219H6.87695ZM10.5947 7.74219C10.3926 7.74219 10.2607 7.61035 10.2607 7.39941V5.79102C10.2607 5.58008 10.3926 5.43945 10.5947 5.43945H12.2471C12.4492 5.43945 12.5898 5.58008 12.5898 5.79102V7.39941C12.5898 7.61035 12.4492 7.74219 12.2471 7.74219H10.5947ZM16.2725 20.3105C16.2725 20.3369 16.2725 20.3633 16.2725 20.3809H18.918C19.1816 20.3809 19.3223 20.2402 19.3223 19.9766V7.75977C19.3223 7.4873 19.1816 7.35547 18.918 7.35547H16.2725V9.55273H17.6348C17.8018 9.55273 17.9072 9.6582 17.9072 9.8252V11.0996C17.9072 11.2578 17.8018 11.3633 17.6348 11.3633H16.2725V12.5586H17.6348C17.8018 12.5586 17.9072 12.6641 17.9072 12.8398V14.1055C17.9072 14.2637 17.8018 14.3691 17.6348 14.3691H16.2725V15.5645H17.6348C17.8018 15.5645 17.9072 15.6699 17.9072 15.8369V17.1025C17.9072 17.2695 17.8018 17.375 17.6348 17.375H16.2725V20.3105ZM6.87695 11.0645C6.66602 11.0645 6.53418 10.9238 6.53418 10.7129V9.10449C6.53418 8.90234 6.66602 8.76172 6.87695 8.76172H8.52051C8.73145 8.76172 8.86328 8.90234 8.86328 9.10449V10.7129C8.86328 10.9238 8.73145 11.0645 8.52051 11.0645H6.87695ZM10.5947 11.0645C10.3926 11.0645 10.2607 10.9238 10.2607 10.7129V9.10449C10.2607 8.90234 10.3926 8.76172 10.5947 8.76172H12.2471C12.4492 8.76172 12.5898 8.90234 12.5898 9.10449V10.7129C12.5898 10.9238 12.4492 11.0645 12.2471 11.0645H10.5947ZM6.87695 14.3867C6.66602 14.3867 6.53418 14.2461 6.53418 14.0352V12.4268C6.53418 12.2158 6.66602 12.0752 6.87695 12.0752H8.52051C8.73145 12.0752 8.86328 12.2158 8.86328 12.4268V14.0352C8.86328 14.2461 8.73145 14.3867 8.52051 14.3867H6.87695ZM10.5947 14.3867C10.3926 14.3867 10.2607 14.2461 10.2607 14.0352V12.4268C10.2607 12.2158 10.3926 12.0752 10.5947 12.0752H12.2471C12.4492 12.0752 12.5898 12.2158 12.5898 12.4268V14.0352C12.5898 14.2461 12.4492 14.3867 12.2471 14.3867H10.5947ZM8.24805 18.5V20.3809H10.8848V18.5C10.8848 18.333 10.7969 18.2451 10.6299 18.2451H8.50293C8.33594 18.2451 8.24805 18.333 8.24805 18.5Z" fill="#171717" style="fill:#171717;fill:color(display-p3 0.0902 0.0902 0.0902);fill-opacity:1;"/>
</svg>
