<svg width="24" height="24" viewBox="0 0 24 24" fill="none" xmlns="http://www.w3.org/2000/svg">
<path d="M7.53662 16.4746C4.4502 13.3882 2.13281 9.73779 2.13281 6.7334C2.13281 5.41064 2.59424 4.22119 3.47607 3.37012C4.09131 2.78564 4.94238 2.24219 5.63965 2.24219C6.21387 2.24219 6.64453 2.6626 7.14697 3.37012L8.91064 5.84131C9.31055 6.40527 9.4541 6.83594 9.4541 7.24609C9.4541 7.61523 9.36182 7.86133 9.10547 8.32275L8.12109 10.0146C8.03906 10.1582 7.96729 10.2915 7.96729 10.4248C7.96729 10.5991 8.02881 10.7529 8.09033 10.8657C8.50049 11.686 9.26953 12.6909 10.2642 13.6855C11.269 14.6904 12.3867 15.5723 13.1968 15.9414C13.4019 16.0234 13.5352 16.0747 13.73 16.0747C13.8735 16.0747 13.9761 16.0542 14.1709 15.9414L15.8423 15.0288C16.396 14.7212 16.6626 14.6699 17.001 14.6699C17.3701 14.6699 17.6675 14.752 18.3032 15.2031L20.8872 17.0488C21.5742 17.541 21.8511 17.9409 21.8511 18.3921C21.8511 18.9663 21.5537 19.6226 20.7847 20.4941C19.9849 21.3862 18.7544 21.9502 17.3496 21.9502C14.3555 21.9502 10.6436 19.5815 7.53662 16.4746Z" fill="#171717" style="fill:#171717;fill:color(display-p3 0.0902 0.0902 0.0902);fill-opacity:1;"/>
</svg>
