<svg width="18" height="19" viewBox="0 0 18 19" fill="none" xmlns="http://www.w3.org/2000/svg">
<path d="M1.53613 15.082C0.593506 15.082 0 14.5409 0 13.7466C0 12.7953 0.811707 12.001 1.61469 11.2592C2.25183 10.6744 2.39148 9.40881 2.53113 8.16943C2.69696 5.06226 3.6745 2.82788 5.89142 2.0249C6.27545 0.872803 7.25299 0 8.54474 0C9.83649 0 10.814 0.872803 11.1981 2.0249C13.415 2.82788 14.3925 5.06226 14.5583 8.16943C14.698 9.40881 14.8376 10.6744 15.4748 11.2592C16.269 12.001 17.0895 12.7953 17.0895 13.7466C17.0895 14.5409 16.496 15.082 15.5533 15.082H1.53613ZM8.54474 18.7391C6.95624 18.7391 5.79541 17.6219 5.69067 16.3214H11.3988C11.2853 17.6219 10.1332 18.7391 8.54474 18.7391Z" fill="black" style="fill:black;fill-opacity:1;"/>
</svg>
