<svg width="24" height="24" viewBox="0 0 24 24" fill="none" xmlns="http://www.w3.org/2000/svg">
<path d="M7.54443 23.3467C6.70654 23.3467 6.2019 22.7754 6.2019 21.8518V19.5952H5.64966C2.94556 19.5952 1.20312 17.9004 1.20312 15.0439V7.58862C1.20312 4.73218 2.87891 3.02783 5.75439 3.02783H18.2371C21.1221 3.02783 22.7979 4.73218 22.7979 7.58862V15.0439C22.7979 17.8909 21.1221 19.5952 18.2371 19.5952H12.5337L9.28687 22.4517C8.57275 23.0801 8.12524 23.3467 7.54443 23.3467ZM8.05859 20.9854L11.0579 18.0242C11.4958 17.5862 11.7815 17.4719 12.3909 17.4719H18.1418C19.8462 17.4719 20.6746 16.615 20.6746 14.9487V7.68384C20.6746 6.00806 19.8462 5.15112 18.1418 5.15112H5.84961C4.14526 5.15112 3.32642 6.00806 3.32642 7.68384V14.9487C3.32642 16.615 4.14526 17.4719 5.84961 17.4719H7.23975C7.79199 17.4719 8.05859 17.7004 8.05859 18.3003V20.9854ZM7.34448 10.3403C7.34448 9.15967 8.22046 8.3313 9.40112 8.3313C10.7151 8.3313 11.572 9.38818 11.572 10.7498C11.572 13.0063 9.71533 14.2632 8.66797 14.2632C8.38232 14.2632 8.17285 14.0728 8.17285 13.8157C8.17285 13.5776 8.29663 13.4158 8.61084 13.3396C9.36304 13.1587 10.0771 12.616 10.3628 11.8923H10.239C9.97241 12.197 9.57251 12.3018 9.125 12.3018C8.04907 12.3018 7.34448 11.4639 7.34448 10.3403ZM12.5242 10.3403C12.5242 9.15967 13.4001 8.3313 14.5808 8.3313C15.8948 8.3313 16.7517 9.38818 16.7517 10.7498C16.7517 13.0063 14.895 14.2632 13.8477 14.2632C13.562 14.2632 13.3525 14.0728 13.3525 13.8157C13.3525 13.5776 13.4763 13.4158 13.7905 13.3396C14.5427 13.1587 15.2568 12.616 15.5425 11.8923H15.4187C15.1521 12.197 14.7427 12.3018 14.3047 12.3018C13.2288 12.3018 12.5242 11.4639 12.5242 10.3403Z" fill="black" style="fill:black;fill-opacity:1;"/>
</svg>
