<svg width="48" height="48" viewBox="0 0 48 48" fill="none" xmlns="http://www.w3.org/2000/svg">
<path d="M12.517 42.0281C8.91791 42.0281 7.22309 40.3142 7.22309 36.7341V32.697C7.22309 32.3542 7.12788 32.1067 6.88032 31.8401L4.02387 28.9836C1.49116 26.4509 1.47211 24.0515 4.02387 21.5188L6.88032 18.6433C7.12788 18.3958 7.22309 18.1482 7.22309 17.8054V13.7683C7.22309 10.1501 8.91791 8.47437 12.517 8.47437H16.5541C16.8969 8.47437 17.1445 8.37915 17.392 8.13159L20.2675 5.27515C22.8002 2.72339 25.1997 2.72339 27.7324 5.27515L30.5888 8.13159C30.8554 8.37915 31.103 8.47437 31.4457 8.47437H35.4829C39.0629 8.47437 40.7768 10.1882 40.7768 13.7683V17.8054C40.7768 18.1482 40.872 18.3958 41.1196 18.6433L43.976 21.5188C46.5087 24.0515 46.5278 26.4509 43.976 28.9836L41.1196 31.8401C40.872 32.1067 40.7768 32.3542 40.7768 32.697V36.7341C40.7768 40.3142 39.0629 42.0281 35.4829 42.0281H31.4457C31.103 42.0281 30.8554 42.1042 30.5888 42.3708L27.7324 45.2273C25.1997 47.76 22.8002 47.76 20.2675 45.2273L17.392 42.3708C17.1445 42.1042 16.8969 42.0281 16.5541 42.0281H12.517ZM21.8862 34.7156C22.6479 34.7156 23.3144 34.3347 23.7714 33.6301L32.6645 19.9192C32.9501 19.4622 33.1787 18.967 33.1787 18.51C33.1787 17.4436 32.2265 16.7009 31.1982 16.7009C30.5317 16.7009 29.9604 17.0627 29.5034 17.7864L21.829 30.031L18.3061 25.6321C17.811 25.0037 17.3159 24.7751 16.6874 24.7751C15.6401 24.7751 14.7831 25.613 14.7831 26.6794C14.7831 27.1936 14.9545 27.6506 15.3354 28.1267L19.9248 33.6682C20.496 34.3728 21.1054 34.7156 21.8862 34.7156Z" fill="#267E2D" style="fill:#267E2D;fill:color(display-p3 0.1490 0.4941 0.1765);fill-opacity:1;"/>
</svg>
