<svg width="24" height="24" viewBox="0 0 24 24" fill="none" xmlns="http://www.w3.org/2000/svg">
<path d="M11.9995 22.792C6.09326 22.792 1.30469 18.0034 1.30469 12.0972C1.30469 6.19092 6.09326 1.40234 11.9995 1.40234C17.9058 1.40234 22.6943 6.19092 22.6943 12.0972C22.6943 18.0034 17.9058 22.792 11.9995 22.792ZM11.9995 20.9565C13.4453 20.9565 14.8193 20.6079 16.0293 19.9927C15.7524 19.6851 15.4756 19.5107 15.0552 19.521C14.6143 19.521 14.2349 19.7568 13.5786 19.7568C12.8506 19.7568 12.3481 19.2134 12.1021 18.1675C11.8354 16.9678 12.0303 16.4038 12.8301 16.0962L13.2505 15.9424C13.9478 15.6758 14.1323 15.5322 14.2554 15.1221C14.7065 13.7686 15.3218 13.2148 16.3677 13.2148C16.9316 13.2148 17.2803 13.3789 17.7007 13.8403C17.9673 14.1582 18.0391 14.1787 18.3672 14.0762C18.6338 13.9839 18.9312 13.9429 19.1567 13.9429C19.7002 13.9429 20.1514 14.23 20.459 14.7529C20.7153 13.9121 20.8589 13.02 20.8589 12.0972C20.8589 8.80566 19.0645 5.92432 16.3882 4.39648C16.0806 4.50928 15.9575 4.61182 15.9575 4.72461C15.9575 5.01172 17.3315 5.67822 17.3315 6.42676C17.3315 7.11377 16.4907 7.9751 15.2603 8.62109C14.6963 8.9082 14.5732 9.1543 14.5322 9.37988C14.4194 9.91309 13.9067 10.395 12.7891 9.50293C12.625 9.39014 12.4814 9.33887 12.3584 9.33887C12.1738 9.33887 12.02 9.45166 12.02 9.64648C12.02 10.0874 13.1274 10.7129 13.1274 11.3896C13.1274 12.3535 11.8354 13.5225 10.4409 13.5225C10.2563 13.5225 10.123 13.5942 10.123 13.7275C10.123 13.9736 10.7178 14.394 10.7178 14.7017C10.7178 15.4092 9.98975 16.2808 9.38477 16.2808C8.75928 16.2808 8.13379 15.6655 7.20068 14.4761C6.65723 13.7686 6.34961 13.502 6.04199 13.502C5.51904 13.502 5.50879 15.2246 4.2373 16.373C5.74463 19.1006 8.65674 20.9565 11.9995 20.9565ZM14.3989 11.5435C14.0913 11.5435 13.8247 11.3896 13.8247 11.0513C13.8247 10.7334 13.9785 10.5693 14.3989 10.4463C14.9321 10.2925 15.1577 10.1489 15.2808 9.86182C15.5269 9.34912 15.896 9.0415 16.2856 9.0415C16.665 9.0415 16.8291 9.32861 16.8291 9.67725C16.8291 10.0977 16.5728 10.6001 16.0908 10.7437C15.3423 10.959 15.0552 11.5435 14.3989 11.5435ZM11.4663 16.1372C11.1689 16.1372 10.9844 15.9834 10.9844 15.7476C10.9844 15.3477 11.333 15.3374 11.333 14.9375C11.333 14.2505 11.5688 13.7993 11.9585 13.7993C12.2969 13.7993 12.6045 14.1479 12.6045 14.876C12.6045 15.4707 12.0508 16.1372 11.4663 16.1372ZM9.63086 18.0342C8.2876 18.0342 8.59521 17.1523 7.93896 17.1523C7.6416 17.1523 7.41602 16.978 7.41602 16.7524C7.41602 16.4756 7.6416 16.2808 7.96973 16.2808C8.5542 16.2808 8.60547 16.9678 9.81543 16.9678C10.123 16.9678 10.3486 17.1523 10.3486 17.4292C10.3486 17.7983 10.0615 18.0342 9.63086 18.0342Z" fill="#171717" style="fill:#171717;fill:color(display-p3 0.0902 0.0902 0.0902);fill-opacity:1;"/>
</svg>
