<svg width="24" height="24" viewBox="0 0 24 24" fill="none" xmlns="http://www.w3.org/2000/svg">
<path d="M18.3031 1.19922H5.70312C3.21822 1.19922 1.20312 3.21432 1.20312 5.69922V18.2992C1.20312 20.7841 3.21822 22.7992 5.70312 22.7992H18.3031C20.7889 22.7992 22.8031 20.7841 22.8031 18.2992V5.69922C22.8031 3.21432 20.7889 1.19922 18.3031 1.19922ZM8.40312 18.2992H5.70312V8.39922H8.40312V18.2992ZM7.05312 7.25802C6.18372 7.25802 5.47812 6.54702 5.47812 5.67042C5.47812 4.79382 6.18372 4.08282 7.05312 4.08282C7.92252 4.08282 8.62812 4.79382 8.62812 5.67042C8.62812 6.54702 7.92342 7.25802 7.05312 7.25802ZM19.2031 18.2992H16.5031V13.2556C16.5031 10.2244 12.9031 10.4539 12.9031 13.2556V18.2992H10.2031V8.39922H12.9031V9.98772C14.1595 7.66032 19.2031 7.48842 19.2031 12.2161V18.2992Z" fill="#0077B5" style="fill:#0077B5;fill:color(display-p3 0.0000 0.4667 0.7098);fill-opacity:1;"/>
</svg>
