<svg width="24" height="24" viewBox="0 0 24 24" fill="none" xmlns="http://www.w3.org/2000/svg">
<path d="M7.80713 5.44678C8.18799 5.16113 8.60693 4.9231 9.09253 4.76123C9.49243 3.47583 10.5684 2.5332 11.9966 2.5332C13.4248 2.5332 14.5103 3.47583 14.9006 4.76123C17.3667 5.64673 18.4998 8.06519 18.6521 11.769C18.7854 13.4258 19.0234 14.4255 19.8328 15.2253C20.623 15.9395 21.4038 16.7202 21.4038 17.6438C21.4038 18.0437 21.261 18.3865 21.023 18.634L16.9478 14.5017C16.6812 13.8162 16.5859 13.064 16.5288 12.0261C16.405 8.25562 15.2434 6.96069 13.7581 6.56079C13.5295 6.50366 13.4058 6.3894 13.3772 6.1228C13.3201 5.17065 12.8059 4.55176 11.9966 4.55176C11.1968 4.55176 10.6731 5.17065 10.616 6.1228C10.5969 6.3894 10.4636 6.50366 10.2351 6.56079C9.91138 6.64648 9.60669 6.77979 9.33057 6.97021L7.80713 5.44678ZM3.04639 4.63745C2.75122 4.34229 2.75122 3.83765 3.04639 3.54248C3.35107 3.23779 3.85571 3.23779 4.15088 3.54248L21.5752 20.9573C21.8799 21.2524 21.8704 21.7476 21.5752 22.0522C21.28 22.3569 20.7849 22.3569 20.4802 22.0522L3.04639 4.63745ZM11.9966 22.7092C9.72095 22.7092 8.19751 21.0049 8.12134 19.1958H4.27466C3.21777 19.1958 2.57031 18.6055 2.57031 17.7104C2.57031 16.6536 3.46533 15.7776 4.36035 14.9492C5.06494 14.3018 5.20776 13.0164 5.36963 11.5405C5.40772 10.5979 5.50293 9.74097 5.68384 8.99829L7.55005 10.8645C7.49292 11.312 7.45483 11.7881 7.43579 12.3213C7.34058 13.978 7.03589 15.1682 6.45508 15.8442C6.00757 16.3679 5.46484 16.844 5.16968 17.1106V17.2153H13.9104L16.2432 19.5576H15.8242C15.5671 21.2524 14.1008 22.7092 11.9966 22.7092ZM11.9966 21.043C13.0249 21.043 13.7771 20.3193 13.8438 19.1958H10.1494C10.2161 20.3193 10.9683 21.043 11.9966 21.043Z" fill="#171717" style="fill:#171717;fill:color(display-p3 0.0902 0.0902 0.0902);fill-opacity:1;"/>
</svg>
