<svg width="24" height="24" viewBox="0 0 24 24" fill="none" xmlns="http://www.w3.org/2000/svg">
<path d="M2 0.746025C2.10937 0.768135 2.18085 0.798845 2.28419 0.836895C2.87207 1.05335 3.43377 1.32478 4.00577 1.57791C4.26813 1.69402 4.55048 1.77749 4.81149 1.90018C5.73353 2.33707 6.69773 2.67513 7.61462 3.12257C7.73729 3.19291 7.91957 3.27048 7.98939 3.39725C8.30075 3.96248 8.55411 4.5492 8.88357 5.10652C8.90971 5.15072 8.94675 5.21431 8.96847 5.2587C9.42488 6.19213 9.96041 7.07913 10.3918 8.02541C10.4261 8.10057 10.5236 8.17596 10.5568 8.25137C10.7235 8.62999 10.9704 9.03665 11.1258 9.41146C8.4863 9.6441 6.57843 12.1159 6.81151 14.7174C6.93145 16.0255 7.57266 17.2304 8.5907 18.0605C8.91169 18.3271 9.17994 18.4721 9.54385 18.6598C12.8933 20.3871 16.901 17.5732 16.5574 13.8354C16.3464 11.5399 14.5922 9.63175 12.2341 9.41729C12.5178 8.78467 12.7318 8.42336 13.0451 7.83969L13.8347 6.34492C14.3349 5.38976 14.8318 4.43034 15.3396 3.48041C15.5216 3.14007 15.8452 3.04996 16.1865 2.90827C16.9326 2.59848 17.6704 2.27518 18.4108 1.95458L20.4264 1.09297C20.7355 0.958771 21.0567 0.862781 21.3696 0.720703L21.3674 4.02196C21.3676 4.46923 21.3848 5.05598 21.3659 5.49228C20.8676 5.72167 20.347 5.8917 19.8533 6.13233C19.2505 6.42617 18.5785 6.6243 17.9703 6.89914C18.427 7.26172 18.6334 7.44333 19.0179 7.89687C19.3354 8.27132 19.5079 8.51281 19.7856 8.91812C20.1553 9.4579 20.3462 9.84967 20.6063 10.4482C20.956 11.2529 21.2016 12.0066 21.3024 12.8856C21.5542 14.9779 21.2494 17.0179 20.2576 18.8885C20.0221 19.3326 19.699 19.7524 19.4145 20.1648C18.1275 21.7845 16.3805 23.0383 14.3746 23.585C13.8481 23.7283 13.4514 23.8746 12.891 23.9018C12.7323 23.9097 12.2219 23.9602 12.1004 23.9994H11.3044C11.1011 23.9319 10.363 23.9073 10.0779 23.8516C9.22695 23.6853 8.25625 23.3927 7.47938 23.0172C7.04569 22.7883 6.6158 22.5448 6.20071 22.2836C6.06389 22.1999 5.934 22.0558 5.803 21.9703C5.45882 21.7459 5.21796 21.4888 4.92441 21.2147C4.11056 20.4548 3.47653 19.5513 2.97002 18.5638C2.68659 17.9741 2.48302 17.3487 2.28172 16.7262C2.17219 16.3875 2.11777 15.9608 2.06897 15.608C2.04723 15.4508 2.05348 15.3074 2 15.1536V13.4151C2.03732 13.3133 2.07388 12.8938 2.09237 12.7514C2.12895 12.468 2.18201 12.1869 2.25127 11.9096C2.40596 11.31 2.70093 10.5344 2.95817 9.97196C3.15302 9.54594 3.53784 8.98285 3.78557 8.5757C3.99873 8.22537 4.44143 7.80366 4.70983 7.47922C4.8321 7.33144 5.22134 7.0412 5.38792 6.89688C5.25504 6.8359 5.11373 6.776 4.97591 6.72515C4.28252 6.46838 3.614 6.16636 2.93683 5.8727C2.63772 5.74299 2.28002 5.6359 2 5.47756V0.746025Z" fill="black" style="fill:black;fill-opacity:1;"/>
<path d="M11.6782 2.39061C11.9958 2.23142 12.3023 2.03771 12.6158 1.87725C12.8569 1.75376 13.1197 1.64211 13.3651 1.51959L16.4205 0C16.2064 0.51805 16.0372 0.765929 15.7955 1.24329C15.2647 2.30702 14.7079 3.35761 14.1257 4.39414C13.9363 4.85849 13.6644 5.26286 13.4436 5.70694C13.172 6.25332 12.8869 6.78107 12.5945 7.31647C12.3909 7.68916 12.2323 8.08583 12.002 8.44885C11.8967 8.61474 11.8258 8.80121 11.6976 8.95606L11.6727 8.95834C11.5478 8.84487 11.3424 8.38762 11.2488 8.20927L10.5015 6.78234L8.85445 3.64936L7.4715 1.03075C7.37098 0.837871 7.01125 0.197282 6.97656 0.0268645C7.2495 0.0831106 8.11346 0.584933 8.41408 0.731344C9.50808 1.26416 10.6052 1.81638 11.6782 2.39061Z" fill="black" style="fill:black;fill-opacity:1;"/>
</svg>
