<svg width="107" height="85" viewBox="0 0 107 85" fill="none" xmlns="http://www.w3.org/2000/svg">
<g clip-path="url(#clip0_1932_9672)">
<path opacity="0.3" d="M78.5487 -0.121094L52.8173 12.7978L27.0859 -0.121094L52.8173 48.7005L78.5487 -0.121094Z" fill="white" style="fill:white;fill-opacity:1;"/>
<path opacity="0.3" d="M87.7329 37.4465L106.091 29.7852V3.94727L74.1901 17.6174L56.4336 50.9663C63.2646 51.7524 69.5357 55.1168 73.9619 60.3701C78.3881 65.6234 80.6342 72.3678 80.2398 79.221C79.8454 86.0742 76.8405 92.5175 71.8408 97.2302C66.8411 101.943 60.2253 104.568 53.3491 104.568C46.4729 104.568 39.8571 101.943 34.8574 97.2302C29.8576 92.5175 26.8527 86.0742 26.4583 79.221C26.0639 72.3678 28.3096 65.6234 32.7358 60.3701C37.162 55.1168 43.4331 51.7524 50.2641 50.9663L32.508 17.6174L0.757812 3.94727V29.7852L19.4167 37.4465C11.3242 44.5081 5.58271 53.8663 2.95838 64.2714C0.334045 74.6766 0.951732 85.6331 4.72957 95.6784C8.50741 105.724 15.2653 114.379 24.1007 120.489C32.9361 126.599 43.4284 129.873 54.1766 129.873C64.9247 129.873 75.4171 126.599 84.2525 120.489C93.0878 114.379 99.8457 105.724 103.624 95.6784C107.401 85.6331 108.02 74.6766 105.395 64.2714C102.771 53.8663 97.0289 44.5081 88.9365 37.4465H87.7329Z" fill="white" style="fill:white;fill-opacity:1;"/>
</g>
<defs>
<clipPath id="clip0_1932_9672">
<rect width="107" height="130" fill="white" style="fill:white;fill-opacity:1;"/>
</clipPath>
</defs>
</svg>
