<svg width="24" height="24" viewBox="0 0 24 24" fill="none" xmlns="http://www.w3.org/2000/svg">
<path d="M2.57031 17.7104C2.57031 16.6536 3.46533 15.7776 4.35083 14.9492C5.05542 14.3018 5.20776 13.0164 5.36963 11.5405C5.54102 8.04614 6.63599 5.64673 9.09253 4.76123C9.48291 3.47583 10.5684 2.5332 11.9966 2.5332C13.4248 2.5332 14.5103 3.47583 14.9006 4.76123C17.3572 5.64673 18.4521 8.04614 18.6235 11.5405C18.7854 13.0164 18.9377 14.3018 19.6423 14.9492C20.5278 15.7776 21.4229 16.6536 21.4229 17.7104C21.4229 18.5959 20.7754 19.1958 19.7185 19.1958H15.8813C15.7957 21.0144 14.2722 22.7092 11.9966 22.7092C9.72095 22.7092 8.19751 21.0049 8.11182 19.1958H4.27466C3.21777 19.1958 2.57031 18.5959 2.57031 17.7104ZM5.16016 17.2153H18.7949V17.1106C18.4902 16.844 17.9856 16.3679 17.5381 15.8442C16.9192 15.1016 16.6145 13.6257 16.5002 11.8547C16.3669 8.21753 15.2244 6.95117 13.7581 6.56079C13.5295 6.50366 13.3962 6.3894 13.3772 6.1228C13.3201 5.17065 12.8059 4.55176 11.9966 4.55176C11.1873 4.55176 10.6731 5.17065 10.616 6.1228C10.5969 6.3894 10.4636 6.50366 10.2351 6.56079C8.7688 6.95117 7.62622 8.21753 7.4834 11.8547C7.37866 13.6257 7.0835 15.1016 6.45508 15.8442C6.00757 16.3679 5.46484 16.844 5.16016 17.1106V17.2153ZM10.1494 19.1958C10.2161 20.3193 10.9683 21.043 11.9966 21.043C13.0249 21.043 13.7771 20.3193 13.8438 19.1958H10.1494Z" fill="#171717" style="fill:#171717;fill:color(display-p3 0.0902 0.0902 0.0902);fill-opacity:1;"/>
</svg>
