<svg width="24" height="24" viewBox="0 0 24 24" fill="none" xmlns="http://www.w3.org/2000/svg">
<path d="M12.0088 22.772C11.1782 22.772 10.6963 22.29 10.6963 21.4492C10.6963 21.3159 10.7065 21.1519 10.7168 20.998L10.9321 13.9331L5.03613 17.5835C4.69775 17.8091 4.36963 17.9116 4.01074 17.9116C3.26221 17.9116 2.71875 17.3477 2.71875 16.5889C2.71875 16.0044 2.9751 15.6147 3.59033 15.3174L9.88623 12.1079L3.59033 8.88818C2.9751 8.59082 2.71875 8.21143 2.71875 7.62695C2.71875 6.85791 3.26221 6.3042 4.01074 6.3042C4.36963 6.3042 4.69775 6.40674 5.03613 6.63232L10.9321 10.2725L10.7168 3.21777C10.7065 3.05371 10.6963 2.8999 10.6963 2.7666C10.6963 1.92578 11.1782 1.43359 12.0088 1.43359C12.8291 1.43359 13.311 1.92578 13.311 2.7666C13.311 2.8999 13.3008 3.05371 13.2905 3.21777L13.0752 10.2725L18.9712 6.63232C19.2993 6.40674 19.6377 6.3042 19.9966 6.3042C20.7451 6.3042 21.2783 6.85791 21.2783 7.62695C21.2783 8.21143 21.022 8.59082 20.417 8.88818L14.1211 12.1079L20.417 15.3174C21.022 15.6147 21.2783 15.9941 21.2783 16.5889C21.2783 17.3477 20.7451 17.9116 19.9966 17.9116C19.6377 17.9116 19.2993 17.8091 18.9712 17.5835L13.0752 13.9331L13.2905 20.998C13.3008 21.1519 13.311 21.3159 13.311 21.4492C13.311 22.29 12.8291 22.772 12.0088 22.772Z" fill="#171717" style="fill:#171717;fill:color(display-p3 0.0902 0.0902 0.0902);fill-opacity:1;"/>
</svg>
