<svg width="24" height="24" viewBox="0 0 24 24" fill="none" xmlns="http://www.w3.org/2000/svg">
<path d="M3.23438 14.1582V6.46777C3.23438 5.14502 3.71631 4.64258 4.84424 4.1709C5.93115 3.71973 9.7251 2.3457 10.771 2.04834C11.1606 1.9458 11.6118 1.85352 12.0015 1.85352C12.3911 1.85352 12.8423 1.93555 13.2319 2.04834C14.2778 2.39697 18.0718 3.70947 19.1587 4.1709C20.2866 4.65283 20.7686 5.14502 20.7686 6.46777V14.1582C20.7686 17.8906 18.687 19.4287 12.7397 22.6074C12.4731 22.751 12.1963 22.8228 12.0015 22.8228C11.8066 22.8228 11.5298 22.751 11.2529 22.6074C5.32617 19.4185 3.23438 17.8906 3.23438 14.1582ZM12.145 20.4131C12.2578 20.3926 12.3706 20.3311 12.5552 20.2183C17.1182 17.4907 18.6152 16.6909 18.6152 13.7686V6.80615C18.6152 6.43701 18.5332 6.27295 18.2461 6.16016C16.7388 5.6167 13.8677 4.61182 12.627 4.12988C12.4116 4.05811 12.2783 4.02734 12.145 4.01709V20.4131Z" fill="#171717" style="fill:#171717;fill:color(display-p3 0.0902 0.0902 0.0902);fill-opacity:1;"/>
</svg>
