<svg width="24" height="24" viewBox="0 0 24 24" fill="none" xmlns="http://www.w3.org/2000/svg">
<path d="M11.9995 22.792C6.09326 22.792 1.30469 18.0034 1.30469 12.0972C1.30469 6.19092 6.09326 1.40234 11.9995 1.40234C17.9058 1.40234 22.6943 6.19092 22.6943 12.0972C22.6943 18.0034 17.9058 22.792 11.9995 22.792ZM9.37451 9.94385C9.89746 10.1182 10.4409 10.2515 10.9844 10.354C11.1792 7.87256 11.9175 5.46289 13.1274 3.30957C13.0249 3.28906 12.9121 3.27881 12.8096 3.26855C11.0767 4.86816 9.74365 6.80615 8.89258 8.94922C9.14893 9.20557 9.32324 9.5542 9.37451 9.94385ZM4.71924 7.04199C5.33447 7.66748 6.01123 8.21094 6.729 8.68262C6.95459 8.54932 7.20068 8.45703 7.47754 8.43652C8.21582 6.57031 9.28223 4.84766 10.6357 3.34033C8.19531 3.71973 6.08301 5.09375 4.71924 7.04199ZM15.3525 7.08301C15.3525 7.83154 15.4346 8.56982 15.5884 9.27734C16.0908 9.29785 16.542 9.52344 16.8496 9.88232C17.9673 9.49268 19.0132 8.92871 19.9668 8.21094C19.0747 6.38574 17.5776 4.91943 15.7422 4.05811C15.4653 5.04248 15.3423 6.06787 15.3525 7.08301ZM13.8452 7.09326C13.835 6.31396 13.8965 5.55518 14.0298 4.80664C13.1582 6.58057 12.6353 8.5083 12.4917 10.5181C12.6865 10.5283 12.8813 10.5283 13.0762 10.5283C13.3428 10.5283 13.6094 10.5181 13.8657 10.4976C13.9375 10.2822 14.04 10.0874 14.1836 9.91309C13.9683 9.00049 13.8452 8.05713 13.8452 7.09326ZM3.14014 12.0972C3.14014 12.1895 3.14014 12.292 3.14014 12.3945C4.11426 13.2148 5.17041 13.9019 6.26758 14.4556C6.28809 13.4712 6.39062 12.5073 6.56494 11.5537C6.15479 11.2256 5.88818 10.7334 5.88818 10.1694C5.88818 10.0977 5.89844 10.0259 5.89844 9.9541C5.20117 9.50293 4.54492 8.99023 3.93994 8.41602C3.42725 9.53369 3.14014 10.7847 3.14014 12.0972ZM20.8589 12.0972C20.8589 11.2563 20.7461 10.4565 20.5308 9.6875C19.5156 10.395 18.4082 10.9487 17.2393 11.3486C17.1675 11.728 16.9829 12.0664 16.7061 12.3125C17.27 13.3481 18.0083 14.2915 18.8901 15.1016C19.4644 14.876 20.0283 14.6196 20.582 14.3223C20.7666 13.6147 20.8589 12.8662 20.8589 12.0972ZM7.7749 15.1221C8.79004 15.5015 9.84619 15.7783 10.9126 15.9424C11.0151 15.7373 11.1689 15.563 11.3433 15.4194C11.0869 14.2607 10.9536 13.0713 10.9331 11.8613C10.2461 11.7588 9.56934 11.5947 8.91309 11.3794C8.67725 11.6255 8.37988 11.7998 8.03125 11.8818C7.83643 12.938 7.75439 14.0249 7.7749 15.1221ZM13.0762 12.0356C12.8711 12.0356 12.6558 12.0254 12.4507 12.0254C12.4712 13.0508 12.5942 14.0659 12.8198 15.0605C13.394 15.1836 13.8657 15.5835 14.0811 16.1167C15.1577 16.0552 16.2241 15.8911 17.2803 15.6143C16.46 14.7632 15.7729 13.7891 15.2295 12.7432C14.7578 12.6611 14.3477 12.3843 14.0811 11.9946C13.7529 12.0151 13.4146 12.0356 13.0762 12.0356ZM3.48877 14.5581C4.04248 16.4858 5.23193 18.1367 6.81104 19.2852C6.54443 18.2495 6.37012 17.2036 6.30859 16.1475C5.32422 15.7168 4.38086 15.1836 3.48877 14.5581ZM11.9995 20.9565C12.5327 20.9565 13.0659 20.9053 13.5684 20.813C13.1069 20.085 12.707 19.3262 12.3687 18.5469C11.6611 18.5059 11.0767 18.0649 10.8306 17.4497C9.82568 17.3062 8.83105 17.0703 7.86719 16.7524C8.01074 17.9829 8.29785 19.1826 8.74902 20.3413C9.75391 20.7412 10.8511 20.9565 11.9995 20.9565ZM13.7632 17.9624C14.1323 18.8135 14.5835 19.6235 15.0962 20.4028C16.7573 19.7773 18.1724 18.6802 19.1875 17.2754C18.9824 17.1216 18.7773 16.9678 18.5723 16.814C17.0854 17.2959 15.5474 17.5625 14.0093 17.624C13.9375 17.7471 13.8555 17.8599 13.7632 17.9624Z" fill="#171717" style="fill:#171717;fill:color(display-p3 0.0902 0.0902 0.0902);fill-opacity:1;"/>
</svg>
