<svg width="23" height="28" viewBox="0 0 23 28" fill="none" xmlns="http://www.w3.org/2000/svg">
<path d="M0 0.875C0.469452 0.979888 1.07223 1.29963 1.51727 1.49443L3.70304 2.43253C4.67695 2.84916 5.73922 3.25889 6.69637 3.70301C6.94353 3.8177 7.76216 5.52821 7.93213 5.84857L8.95441 7.7938C9.0998 8.06623 9.29025 8.35919 9.41744 8.63022C9.67608 9.1813 9.96057 9.70512 10.2615 10.2342C10.3644 10.4152 10.5282 10.8126 10.6299 10.9509C9.80121 11.0726 9.04331 11.2801 8.33588 11.7281C7.71225 12.1231 7.18665 12.5367 6.74459 13.145C5.99379 14.1552 5.68426 14.9968 5.63439 16.2761C5.61607 16.7467 5.56694 17.021 5.64046 17.5289C5.86579 18.9898 6.65365 20.3046 7.83563 21.1922C9.068 22.1037 10.6117 22.4888 12.1278 22.2633C13.1107 22.1146 14.1796 21.6023 14.9443 20.9588C17.6983 18.6411 17.6332 14.3058 14.7699 12.105C13.9495 11.4744 12.9767 11.0423 11.9331 10.9636C12.2268 10.2332 12.5801 9.62823 12.9472 8.94578L14.0864 6.78371C14.3498 6.27946 14.5914 5.77966 14.8814 5.28687C15.1556 4.82092 15.3391 4.27658 15.6637 3.84126C15.7855 3.67784 16.0879 3.57366 16.2758 3.49348L20.8869 1.54633C21.1603 1.43364 22.2931 0.853806 22.5272 0.905394C22.5946 0.988282 22.5577 1.87438 22.5575 2.05513L22.5559 4.61744C22.5533 4.94259 22.5562 5.26773 22.5643 5.59276C22.5708 5.8244 22.5957 6.12927 22.569 6.35408C22.3376 6.53024 21.6231 6.77686 21.315 6.90783L18.6497 8.05433C18.8653 8.24477 19.1764 8.51143 19.3707 8.71205C21.3046 10.7438 22.4466 13.4012 22.5899 16.2025C22.6528 17.2318 22.5074 18.3648 22.2898 19.3691C22.2513 19.5466 22.134 19.7243 22.0846 19.8952C20.8609 24.126 17.0108 27.313 12.6545 27.853C12.3575 27.8898 11.9574 27.8642 11.6751 27.941H10.8115C10.4888 27.8417 9.79614 27.8393 9.41017 27.7701C8.05308 27.5262 6.77015 27.0608 5.58087 26.3679C3.83972 25.3522 2.39739 23.8949 1.39951 22.1433C1.09943 21.6105 0.640543 20.5678 0.463243 19.9852C0.315554 19.4897 0.202192 18.9847 0.123964 18.4737C0.0923003 18.2728 0.0600329 17.8114 0.00672168 17.6643L0 17.6463V15.6227C0.0440708 15.5192 0.0488103 15.3698 0.0622428 15.2556C0.156624 14.3456 0.347936 13.4912 0.678832 12.6399C1.094 11.5551 1.63279 10.5331 2.34688 9.61341C2.59451 9.29446 2.98524 8.94692 3.24671 8.62272C3.3637 8.47762 3.74599 8.20187 3.9071 8.05882C3.84839 8.03148 3.79042 7.99626 3.7313 7.96783C2.87163 7.55295 1.95645 7.27048 1.10136 6.84305C0.786971 6.68589 0.278785 6.56463 0 6.37777V0.875Z" fill="#FDB416"/>
<path d="M5.79688 0.0283129C5.91852 0.0564219 6.9957 0.616344 7.20443 0.721607L10.1117 2.17441C10.5117 2.37673 10.8695 2.57771 11.2859 2.78136C12.0594 2.33553 12.7857 1.99922 13.5764 1.60701L16.7865 0C16.66 0.361531 16.4176 0.724455 16.2441 1.06817C16.1231 1.30089 16.023 1.55286 15.8937 1.78075C15.5387 2.40622 15.2029 3.03297 14.8937 3.68222C14.8142 3.84922 14.6943 4.02594 14.6054 4.1922C14.4429 4.4965 14.2686 4.78629 14.1356 5.10643C14.0125 5.4187 13.8164 5.66606 13.6663 5.95073C13.4285 6.40184 13.1983 6.86058 12.9864 7.32429C12.9365 7.43345 12.7873 7.60258 12.7338 7.713C12.5223 8.14916 12.2917 8.577 12.0846 9.01521C11.9859 9.22394 11.8383 9.41437 11.7384 9.60897C11.5806 9.91623 11.4565 10.1824 11.2792 10.4819C10.8602 9.77239 10.6264 9.30206 10.2567 8.58754L9.32136 6.80791L7.38242 3.11432L6.39627 1.24925C6.20014 0.881524 5.90572 0.434446 5.79688 0.0283129Z" fill="#FDB416"/>
</svg>
